%TF.GenerationSoftware,KiCad,Pcbnew,9.0.7*%
%TF.CreationDate,2026-01-27T18:23:45+01:00*%
%TF.ProjectId,NEMA17_FOC_Driver,4e454d41-3137-45f4-964f-435f44726976,rev?*%
%TF.SameCoordinates,Original*%
%TF.FileFunction,Legend,Bot*%
%TF.FilePolarity,Positive*%
%FSLAX46Y46*%
G04 Gerber Fmt 4.6, Leading zero omitted, Abs format (unit mm)*
G04 Created by KiCad (PCBNEW 9.0.7) date 2026-01-27 18:23:45*
%MOMM*%
%LPD*%
G01*
G04 APERTURE LIST*
G04 Aperture macros list*
%AMRoundRect*
0 Rectangle with rounded corners*
0 $1 Rounding radius*
0 $2 $3 $4 $5 $6 $7 $8 $9 X,Y pos of 4 corners*
0 Add a 4 corners polygon primitive as box body*
4,1,4,$2,$3,$4,$5,$6,$7,$8,$9,$2,$3,0*
0 Add four circle primitives for the rounded corners*
1,1,$1+$1,$2,$3*
1,1,$1+$1,$4,$5*
1,1,$1+$1,$6,$7*
1,1,$1+$1,$8,$9*
0 Add four rect primitives between the rounded corners*
20,1,$1+$1,$2,$3,$4,$5,0*
20,1,$1+$1,$4,$5,$6,$7,0*
20,1,$1+$1,$6,$7,$8,$9,0*
20,1,$1+$1,$8,$9,$2,$3,0*%
G04 Aperture macros list end*
%ADD10C,0.150000*%
%ADD11C,0.100000*%
%ADD12C,3.600000*%
%ADD13C,5.600000*%
%ADD14RoundRect,0.250000X-0.750000X0.600000X-0.750000X-0.600000X0.750000X-0.600000X0.750000X0.600000X0*%
%ADD15O,2.000000X1.700000*%
%ADD16RoundRect,0.250001X-0.949999X0.949999X-0.949999X-0.949999X0.949999X-0.949999X0.949999X0.949999X0*%
%ADD17C,2.400000*%
%ADD18RoundRect,0.150000X-0.725000X-0.150000X0.725000X-0.150000X0.725000X0.150000X-0.725000X0.150000X0*%
%ADD19RoundRect,0.225000X-0.250000X0.225000X-0.250000X-0.225000X0.250000X-0.225000X0.250000X0.225000X0*%
%ADD20RoundRect,0.250000X-0.625000X0.312500X-0.625000X-0.312500X0.625000X-0.312500X0.625000X0.312500X0*%
%ADD21RoundRect,0.225000X0.250000X-0.225000X0.250000X0.225000X-0.250000X0.225000X-0.250000X-0.225000X0*%
%ADD22RoundRect,0.150000X-0.200000X0.150000X-0.200000X-0.150000X0.200000X-0.150000X0.200000X0.150000X0*%
%ADD23RoundRect,0.250001X-0.949999X-0.949999X0.949999X-0.949999X0.949999X0.949999X-0.949999X0.949999X0*%
%ADD24RoundRect,0.225000X0.225000X0.250000X-0.225000X0.250000X-0.225000X-0.250000X0.225000X-0.250000X0*%
%ADD25RoundRect,0.250000X-0.475000X0.250000X-0.475000X-0.250000X0.475000X-0.250000X0.475000X0.250000X0*%
G04 APERTURE END LIST*
D10*
X147282561Y-69760588D02*
X147330180Y-69665350D01*
X147330180Y-69665350D02*
X147330180Y-69522493D01*
X147330180Y-69522493D02*
X147282561Y-69379636D01*
X147282561Y-69379636D02*
X147187323Y-69284398D01*
X147187323Y-69284398D02*
X147092085Y-69236779D01*
X147092085Y-69236779D02*
X146901609Y-69189160D01*
X146901609Y-69189160D02*
X146758752Y-69189160D01*
X146758752Y-69189160D02*
X146568276Y-69236779D01*
X146568276Y-69236779D02*
X146473038Y-69284398D01*
X146473038Y-69284398D02*
X146377800Y-69379636D01*
X146377800Y-69379636D02*
X146330180Y-69522493D01*
X146330180Y-69522493D02*
X146330180Y-69617731D01*
X146330180Y-69617731D02*
X146377800Y-69760588D01*
X146377800Y-69760588D02*
X146425419Y-69808207D01*
X146425419Y-69808207D02*
X146758752Y-69808207D01*
X146758752Y-69808207D02*
X146758752Y-69617731D01*
X146330180Y-70236779D02*
X147330180Y-70236779D01*
X147330180Y-70236779D02*
X146330180Y-70808207D01*
X146330180Y-70808207D02*
X147330180Y-70808207D01*
X146330180Y-71284398D02*
X147330180Y-71284398D01*
X147330180Y-71284398D02*
X147330180Y-71522493D01*
X147330180Y-71522493D02*
X147282561Y-71665350D01*
X147282561Y-71665350D02*
X147187323Y-71760588D01*
X147187323Y-71760588D02*
X147092085Y-71808207D01*
X147092085Y-71808207D02*
X146901609Y-71855826D01*
X146901609Y-71855826D02*
X146758752Y-71855826D01*
X146758752Y-71855826D02*
X146568276Y-71808207D01*
X146568276Y-71808207D02*
X146473038Y-71760588D01*
X146473038Y-71760588D02*
X146377800Y-71665350D01*
X146377800Y-71665350D02*
X146330180Y-71522493D01*
X146330180Y-71522493D02*
X146330180Y-71284398D01*
X146230180Y-66210588D02*
X146230180Y-65639160D01*
X146230180Y-65924874D02*
X147230180Y-65924874D01*
X147230180Y-65924874D02*
X147087323Y-65829636D01*
X147087323Y-65829636D02*
X146992085Y-65734398D01*
X146992085Y-65734398D02*
X146944466Y-65639160D01*
X147134942Y-66591541D02*
X147182561Y-66639160D01*
X147182561Y-66639160D02*
X147230180Y-66734398D01*
X147230180Y-66734398D02*
X147230180Y-66972493D01*
X147230180Y-66972493D02*
X147182561Y-67067731D01*
X147182561Y-67067731D02*
X147134942Y-67115350D01*
X147134942Y-67115350D02*
X147039704Y-67162969D01*
X147039704Y-67162969D02*
X146944466Y-67162969D01*
X146944466Y-67162969D02*
X146801609Y-67115350D01*
X146801609Y-67115350D02*
X146230180Y-66543922D01*
X146230180Y-66543922D02*
X146230180Y-67162969D01*
X147230180Y-67448684D02*
X146230180Y-67782017D01*
X146230180Y-67782017D02*
X147230180Y-68115350D01*
D11*
X184619925Y-78144028D02*
X184211353Y-78144028D01*
X184211353Y-78144028D02*
X184431353Y-78395457D01*
X184431353Y-78395457D02*
X184337068Y-78395457D01*
X184337068Y-78395457D02*
X184274211Y-78426885D01*
X184274211Y-78426885D02*
X184242782Y-78458314D01*
X184242782Y-78458314D02*
X184211353Y-78521171D01*
X184211353Y-78521171D02*
X184211353Y-78678314D01*
X184211353Y-78678314D02*
X184242782Y-78741171D01*
X184242782Y-78741171D02*
X184274211Y-78772600D01*
X184274211Y-78772600D02*
X184337068Y-78804028D01*
X184337068Y-78804028D02*
X184525639Y-78804028D01*
X184525639Y-78804028D02*
X184588496Y-78772600D01*
X184588496Y-78772600D02*
X184619925Y-78741171D01*
X183928497Y-78741171D02*
X183897068Y-78772600D01*
X183897068Y-78772600D02*
X183928497Y-78804028D01*
X183928497Y-78804028D02*
X183959925Y-78772600D01*
X183959925Y-78772600D02*
X183928497Y-78741171D01*
X183928497Y-78741171D02*
X183928497Y-78804028D01*
X183677068Y-78144028D02*
X183268496Y-78144028D01*
X183268496Y-78144028D02*
X183488496Y-78395457D01*
X183488496Y-78395457D02*
X183394211Y-78395457D01*
X183394211Y-78395457D02*
X183331354Y-78426885D01*
X183331354Y-78426885D02*
X183299925Y-78458314D01*
X183299925Y-78458314D02*
X183268496Y-78521171D01*
X183268496Y-78521171D02*
X183268496Y-78678314D01*
X183268496Y-78678314D02*
X183299925Y-78741171D01*
X183299925Y-78741171D02*
X183331354Y-78772600D01*
X183331354Y-78772600D02*
X183394211Y-78804028D01*
X183394211Y-78804028D02*
X183582782Y-78804028D01*
X183582782Y-78804028D02*
X183645639Y-78772600D01*
X183645639Y-78772600D02*
X183677068Y-78741171D01*
X183079925Y-78144028D02*
X182859925Y-78804028D01*
X182859925Y-78804028D02*
X182639925Y-78144028D01*
X184597068Y-70774028D02*
X184597068Y-70114028D01*
X184597068Y-70114028D02*
X184219925Y-70774028D01*
X184219925Y-70774028D02*
X184219925Y-70114028D01*
X183528496Y-70774028D02*
X183748496Y-70459742D01*
X183905639Y-70774028D02*
X183905639Y-70114028D01*
X183905639Y-70114028D02*
X183654210Y-70114028D01*
X183654210Y-70114028D02*
X183591353Y-70145457D01*
X183591353Y-70145457D02*
X183559924Y-70176885D01*
X183559924Y-70176885D02*
X183528496Y-70239742D01*
X183528496Y-70239742D02*
X183528496Y-70334028D01*
X183528496Y-70334028D02*
X183559924Y-70396885D01*
X183559924Y-70396885D02*
X183591353Y-70428314D01*
X183591353Y-70428314D02*
X183654210Y-70459742D01*
X183654210Y-70459742D02*
X183905639Y-70459742D01*
X183277067Y-70742600D02*
X183182782Y-70774028D01*
X183182782Y-70774028D02*
X183025639Y-70774028D01*
X183025639Y-70774028D02*
X182962782Y-70742600D01*
X182962782Y-70742600D02*
X182931353Y-70711171D01*
X182931353Y-70711171D02*
X182899924Y-70648314D01*
X182899924Y-70648314D02*
X182899924Y-70585457D01*
X182899924Y-70585457D02*
X182931353Y-70522600D01*
X182931353Y-70522600D02*
X182962782Y-70491171D01*
X182962782Y-70491171D02*
X183025639Y-70459742D01*
X183025639Y-70459742D02*
X183151353Y-70428314D01*
X183151353Y-70428314D02*
X183214210Y-70396885D01*
X183214210Y-70396885D02*
X183245639Y-70365457D01*
X183245639Y-70365457D02*
X183277067Y-70302600D01*
X183277067Y-70302600D02*
X183277067Y-70239742D01*
X183277067Y-70239742D02*
X183245639Y-70176885D01*
X183245639Y-70176885D02*
X183214210Y-70145457D01*
X183214210Y-70145457D02*
X183151353Y-70114028D01*
X183151353Y-70114028D02*
X182994210Y-70114028D01*
X182994210Y-70114028D02*
X182899924Y-70145457D01*
X182711353Y-70114028D02*
X182334211Y-70114028D01*
X182522782Y-70774028D02*
X182522782Y-70114028D01*
X184678496Y-76772600D02*
X184584211Y-76804028D01*
X184584211Y-76804028D02*
X184427068Y-76804028D01*
X184427068Y-76804028D02*
X184364211Y-76772600D01*
X184364211Y-76772600D02*
X184332782Y-76741171D01*
X184332782Y-76741171D02*
X184301353Y-76678314D01*
X184301353Y-76678314D02*
X184301353Y-76615457D01*
X184301353Y-76615457D02*
X184332782Y-76552600D01*
X184332782Y-76552600D02*
X184364211Y-76521171D01*
X184364211Y-76521171D02*
X184427068Y-76489742D01*
X184427068Y-76489742D02*
X184552782Y-76458314D01*
X184552782Y-76458314D02*
X184615639Y-76426885D01*
X184615639Y-76426885D02*
X184647068Y-76395457D01*
X184647068Y-76395457D02*
X184678496Y-76332600D01*
X184678496Y-76332600D02*
X184678496Y-76269742D01*
X184678496Y-76269742D02*
X184647068Y-76206885D01*
X184647068Y-76206885D02*
X184615639Y-76175457D01*
X184615639Y-76175457D02*
X184552782Y-76144028D01*
X184552782Y-76144028D02*
X184395639Y-76144028D01*
X184395639Y-76144028D02*
X184301353Y-76175457D01*
X184081354Y-76144028D02*
X183924211Y-76804028D01*
X183924211Y-76804028D02*
X183798497Y-76332600D01*
X183798497Y-76332600D02*
X183672782Y-76804028D01*
X183672782Y-76804028D02*
X183515640Y-76144028D01*
X182887068Y-76741171D02*
X182918496Y-76772600D01*
X182918496Y-76772600D02*
X183012782Y-76804028D01*
X183012782Y-76804028D02*
X183075639Y-76804028D01*
X183075639Y-76804028D02*
X183169925Y-76772600D01*
X183169925Y-76772600D02*
X183232782Y-76709742D01*
X183232782Y-76709742D02*
X183264211Y-76646885D01*
X183264211Y-76646885D02*
X183295639Y-76521171D01*
X183295639Y-76521171D02*
X183295639Y-76426885D01*
X183295639Y-76426885D02*
X183264211Y-76301171D01*
X183264211Y-76301171D02*
X183232782Y-76238314D01*
X183232782Y-76238314D02*
X183169925Y-76175457D01*
X183169925Y-76175457D02*
X183075639Y-76144028D01*
X183075639Y-76144028D02*
X183012782Y-76144028D01*
X183012782Y-76144028D02*
X182918496Y-76175457D01*
X182918496Y-76175457D02*
X182887068Y-76206885D01*
X182289925Y-76804028D02*
X182604211Y-76804028D01*
X182604211Y-76804028D02*
X182604211Y-76144028D01*
X182069925Y-76804028D02*
X182069925Y-76144028D01*
X181692782Y-76804028D02*
X181975639Y-76426885D01*
X181692782Y-76144028D02*
X182069925Y-76521171D01*
X184351353Y-74185457D02*
X184414211Y-74154028D01*
X184414211Y-74154028D02*
X184508496Y-74154028D01*
X184508496Y-74154028D02*
X184602782Y-74185457D01*
X184602782Y-74185457D02*
X184665639Y-74248314D01*
X184665639Y-74248314D02*
X184697068Y-74311171D01*
X184697068Y-74311171D02*
X184728496Y-74436885D01*
X184728496Y-74436885D02*
X184728496Y-74531171D01*
X184728496Y-74531171D02*
X184697068Y-74656885D01*
X184697068Y-74656885D02*
X184665639Y-74719742D01*
X184665639Y-74719742D02*
X184602782Y-74782600D01*
X184602782Y-74782600D02*
X184508496Y-74814028D01*
X184508496Y-74814028D02*
X184445639Y-74814028D01*
X184445639Y-74814028D02*
X184351353Y-74782600D01*
X184351353Y-74782600D02*
X184319925Y-74751171D01*
X184319925Y-74751171D02*
X184319925Y-74531171D01*
X184319925Y-74531171D02*
X184445639Y-74531171D01*
X184037068Y-74814028D02*
X184037068Y-74154028D01*
X184037068Y-74154028D02*
X183659925Y-74814028D01*
X183659925Y-74814028D02*
X183659925Y-74154028D01*
X183345639Y-74814028D02*
X183345639Y-74154028D01*
X183345639Y-74154028D02*
X183188496Y-74154028D01*
X183188496Y-74154028D02*
X183094210Y-74185457D01*
X183094210Y-74185457D02*
X183031353Y-74248314D01*
X183031353Y-74248314D02*
X182999924Y-74311171D01*
X182999924Y-74311171D02*
X182968496Y-74436885D01*
X182968496Y-74436885D02*
X182968496Y-74531171D01*
X182968496Y-74531171D02*
X182999924Y-74656885D01*
X182999924Y-74656885D02*
X183031353Y-74719742D01*
X183031353Y-74719742D02*
X183094210Y-74782600D01*
X183094210Y-74782600D02*
X183188496Y-74814028D01*
X183188496Y-74814028D02*
X183345639Y-74814028D01*
X184658496Y-72772600D02*
X184564211Y-72804028D01*
X184564211Y-72804028D02*
X184407068Y-72804028D01*
X184407068Y-72804028D02*
X184344211Y-72772600D01*
X184344211Y-72772600D02*
X184312782Y-72741171D01*
X184312782Y-72741171D02*
X184281353Y-72678314D01*
X184281353Y-72678314D02*
X184281353Y-72615457D01*
X184281353Y-72615457D02*
X184312782Y-72552600D01*
X184312782Y-72552600D02*
X184344211Y-72521171D01*
X184344211Y-72521171D02*
X184407068Y-72489742D01*
X184407068Y-72489742D02*
X184532782Y-72458314D01*
X184532782Y-72458314D02*
X184595639Y-72426885D01*
X184595639Y-72426885D02*
X184627068Y-72395457D01*
X184627068Y-72395457D02*
X184658496Y-72332600D01*
X184658496Y-72332600D02*
X184658496Y-72269742D01*
X184658496Y-72269742D02*
X184627068Y-72206885D01*
X184627068Y-72206885D02*
X184595639Y-72175457D01*
X184595639Y-72175457D02*
X184532782Y-72144028D01*
X184532782Y-72144028D02*
X184375639Y-72144028D01*
X184375639Y-72144028D02*
X184281353Y-72175457D01*
X184061354Y-72144028D02*
X183904211Y-72804028D01*
X183904211Y-72804028D02*
X183778497Y-72332600D01*
X183778497Y-72332600D02*
X183652782Y-72804028D01*
X183652782Y-72804028D02*
X183495640Y-72144028D01*
X183244211Y-72804028D02*
X183244211Y-72144028D01*
X183244211Y-72144028D02*
X183087068Y-72144028D01*
X183087068Y-72144028D02*
X182992782Y-72175457D01*
X182992782Y-72175457D02*
X182929925Y-72238314D01*
X182929925Y-72238314D02*
X182898496Y-72301171D01*
X182898496Y-72301171D02*
X182867068Y-72426885D01*
X182867068Y-72426885D02*
X182867068Y-72521171D01*
X182867068Y-72521171D02*
X182898496Y-72646885D01*
X182898496Y-72646885D02*
X182929925Y-72709742D01*
X182929925Y-72709742D02*
X182992782Y-72772600D01*
X182992782Y-72772600D02*
X183087068Y-72804028D01*
X183087068Y-72804028D02*
X183244211Y-72804028D01*
X182584211Y-72804028D02*
X182584211Y-72144028D01*
X182144210Y-72144028D02*
X182018496Y-72144028D01*
X182018496Y-72144028D02*
X181955639Y-72175457D01*
X181955639Y-72175457D02*
X181892782Y-72238314D01*
X181892782Y-72238314D02*
X181861353Y-72364028D01*
X181861353Y-72364028D02*
X181861353Y-72584028D01*
X181861353Y-72584028D02*
X181892782Y-72709742D01*
X181892782Y-72709742D02*
X181955639Y-72772600D01*
X181955639Y-72772600D02*
X182018496Y-72804028D01*
X182018496Y-72804028D02*
X182144210Y-72804028D01*
X182144210Y-72804028D02*
X182207068Y-72772600D01*
X182207068Y-72772600D02*
X182269925Y-72709742D01*
X182269925Y-72709742D02*
X182301353Y-72584028D01*
X182301353Y-72584028D02*
X182301353Y-72364028D01*
X182301353Y-72364028D02*
X182269925Y-72238314D01*
X182269925Y-72238314D02*
X182207068Y-72175457D01*
X182207068Y-72175457D02*
X182144210Y-72144028D01*
X166002857Y-77540128D02*
X166002857Y-78074414D01*
X166002857Y-78074414D02*
X165971428Y-78137271D01*
X165971428Y-78137271D02*
X165940000Y-78168700D01*
X165940000Y-78168700D02*
X165877142Y-78200128D01*
X165877142Y-78200128D02*
X165751428Y-78200128D01*
X165751428Y-78200128D02*
X165688571Y-78168700D01*
X165688571Y-78168700D02*
X165657142Y-78137271D01*
X165657142Y-78137271D02*
X165625714Y-78074414D01*
X165625714Y-78074414D02*
X165625714Y-77540128D01*
X165374285Y-77540128D02*
X164965713Y-77540128D01*
X164965713Y-77540128D02*
X165185713Y-77791557D01*
X165185713Y-77791557D02*
X165091428Y-77791557D01*
X165091428Y-77791557D02*
X165028571Y-77822985D01*
X165028571Y-77822985D02*
X164997142Y-77854414D01*
X164997142Y-77854414D02*
X164965713Y-77917271D01*
X164965713Y-77917271D02*
X164965713Y-78074414D01*
X164965713Y-78074414D02*
X164997142Y-78137271D01*
X164997142Y-78137271D02*
X165028571Y-78168700D01*
X165028571Y-78168700D02*
X165091428Y-78200128D01*
X165091428Y-78200128D02*
X165279999Y-78200128D01*
X165279999Y-78200128D02*
X165342856Y-78168700D01*
X165342856Y-78168700D02*
X165374285Y-78137271D01*
X170869999Y-63987271D02*
X170901427Y-64018700D01*
X170901427Y-64018700D02*
X170995713Y-64050128D01*
X170995713Y-64050128D02*
X171058570Y-64050128D01*
X171058570Y-64050128D02*
X171152856Y-64018700D01*
X171152856Y-64018700D02*
X171215713Y-63955842D01*
X171215713Y-63955842D02*
X171247142Y-63892985D01*
X171247142Y-63892985D02*
X171278570Y-63767271D01*
X171278570Y-63767271D02*
X171278570Y-63672985D01*
X171278570Y-63672985D02*
X171247142Y-63547271D01*
X171247142Y-63547271D02*
X171215713Y-63484414D01*
X171215713Y-63484414D02*
X171152856Y-63421557D01*
X171152856Y-63421557D02*
X171058570Y-63390128D01*
X171058570Y-63390128D02*
X170995713Y-63390128D01*
X170995713Y-63390128D02*
X170901427Y-63421557D01*
X170901427Y-63421557D02*
X170869999Y-63452985D01*
X170618570Y-63452985D02*
X170587142Y-63421557D01*
X170587142Y-63421557D02*
X170524285Y-63390128D01*
X170524285Y-63390128D02*
X170367142Y-63390128D01*
X170367142Y-63390128D02*
X170304285Y-63421557D01*
X170304285Y-63421557D02*
X170272856Y-63452985D01*
X170272856Y-63452985D02*
X170241427Y-63515842D01*
X170241427Y-63515842D02*
X170241427Y-63578700D01*
X170241427Y-63578700D02*
X170272856Y-63672985D01*
X170272856Y-63672985D02*
X170649999Y-64050128D01*
X170649999Y-64050128D02*
X170241427Y-64050128D01*
X167120128Y-64777143D02*
X166805842Y-64557143D01*
X167120128Y-64400000D02*
X166460128Y-64400000D01*
X166460128Y-64400000D02*
X166460128Y-64651429D01*
X166460128Y-64651429D02*
X166491557Y-64714286D01*
X166491557Y-64714286D02*
X166522985Y-64745715D01*
X166522985Y-64745715D02*
X166585842Y-64777143D01*
X166585842Y-64777143D02*
X166680128Y-64777143D01*
X166680128Y-64777143D02*
X166742985Y-64745715D01*
X166742985Y-64745715D02*
X166774414Y-64714286D01*
X166774414Y-64714286D02*
X166805842Y-64651429D01*
X166805842Y-64651429D02*
X166805842Y-64400000D01*
X167088700Y-65028572D02*
X167120128Y-65122858D01*
X167120128Y-65122858D02*
X167120128Y-65280000D01*
X167120128Y-65280000D02*
X167088700Y-65342858D01*
X167088700Y-65342858D02*
X167057271Y-65374286D01*
X167057271Y-65374286D02*
X166994414Y-65405715D01*
X166994414Y-65405715D02*
X166931557Y-65405715D01*
X166931557Y-65405715D02*
X166868700Y-65374286D01*
X166868700Y-65374286D02*
X166837271Y-65342858D01*
X166837271Y-65342858D02*
X166805842Y-65280000D01*
X166805842Y-65280000D02*
X166774414Y-65154286D01*
X166774414Y-65154286D02*
X166742985Y-65091429D01*
X166742985Y-65091429D02*
X166711557Y-65060000D01*
X166711557Y-65060000D02*
X166648700Y-65028572D01*
X166648700Y-65028572D02*
X166585842Y-65028572D01*
X166585842Y-65028572D02*
X166522985Y-65060000D01*
X166522985Y-65060000D02*
X166491557Y-65091429D01*
X166491557Y-65091429D02*
X166460128Y-65154286D01*
X166460128Y-65154286D02*
X166460128Y-65311429D01*
X166460128Y-65311429D02*
X166491557Y-65405715D01*
X166774414Y-65688571D02*
X166774414Y-65908571D01*
X167120128Y-66002857D02*
X167120128Y-65688571D01*
X167120128Y-65688571D02*
X166460128Y-65688571D01*
X166460128Y-65688571D02*
X166460128Y-66002857D01*
X167120128Y-66285714D02*
X166460128Y-66285714D01*
X166460128Y-66285714D02*
X167120128Y-66662857D01*
X167120128Y-66662857D02*
X166460128Y-66662857D01*
X167088700Y-66945715D02*
X167120128Y-67040001D01*
X167120128Y-67040001D02*
X167120128Y-67197143D01*
X167120128Y-67197143D02*
X167088700Y-67260001D01*
X167088700Y-67260001D02*
X167057271Y-67291429D01*
X167057271Y-67291429D02*
X166994414Y-67322858D01*
X166994414Y-67322858D02*
X166931557Y-67322858D01*
X166931557Y-67322858D02*
X166868700Y-67291429D01*
X166868700Y-67291429D02*
X166837271Y-67260001D01*
X166837271Y-67260001D02*
X166805842Y-67197143D01*
X166805842Y-67197143D02*
X166774414Y-67071429D01*
X166774414Y-67071429D02*
X166742985Y-67008572D01*
X166742985Y-67008572D02*
X166711557Y-66977143D01*
X166711557Y-66977143D02*
X166648700Y-66945715D01*
X166648700Y-66945715D02*
X166585842Y-66945715D01*
X166585842Y-66945715D02*
X166522985Y-66977143D01*
X166522985Y-66977143D02*
X166491557Y-67008572D01*
X166491557Y-67008572D02*
X166460128Y-67071429D01*
X166460128Y-67071429D02*
X166460128Y-67228572D01*
X166460128Y-67228572D02*
X166491557Y-67322858D01*
X167120128Y-67951429D02*
X167120128Y-67574286D01*
X167120128Y-67762857D02*
X166460128Y-67762857D01*
X166460128Y-67762857D02*
X166554414Y-67700000D01*
X166554414Y-67700000D02*
X166617271Y-67637143D01*
X166617271Y-67637143D02*
X166648700Y-67574286D01*
X158727271Y-73790000D02*
X158758700Y-73758572D01*
X158758700Y-73758572D02*
X158790128Y-73664286D01*
X158790128Y-73664286D02*
X158790128Y-73601429D01*
X158790128Y-73601429D02*
X158758700Y-73507143D01*
X158758700Y-73507143D02*
X158695842Y-73444286D01*
X158695842Y-73444286D02*
X158632985Y-73412857D01*
X158632985Y-73412857D02*
X158507271Y-73381429D01*
X158507271Y-73381429D02*
X158412985Y-73381429D01*
X158412985Y-73381429D02*
X158287271Y-73412857D01*
X158287271Y-73412857D02*
X158224414Y-73444286D01*
X158224414Y-73444286D02*
X158161557Y-73507143D01*
X158161557Y-73507143D02*
X158130128Y-73601429D01*
X158130128Y-73601429D02*
X158130128Y-73664286D01*
X158130128Y-73664286D02*
X158161557Y-73758572D01*
X158161557Y-73758572D02*
X158192985Y-73790000D01*
X158790128Y-74104286D02*
X158790128Y-74230000D01*
X158790128Y-74230000D02*
X158758700Y-74292857D01*
X158758700Y-74292857D02*
X158727271Y-74324286D01*
X158727271Y-74324286D02*
X158632985Y-74387143D01*
X158632985Y-74387143D02*
X158507271Y-74418572D01*
X158507271Y-74418572D02*
X158255842Y-74418572D01*
X158255842Y-74418572D02*
X158192985Y-74387143D01*
X158192985Y-74387143D02*
X158161557Y-74355715D01*
X158161557Y-74355715D02*
X158130128Y-74292857D01*
X158130128Y-74292857D02*
X158130128Y-74167143D01*
X158130128Y-74167143D02*
X158161557Y-74104286D01*
X158161557Y-74104286D02*
X158192985Y-74072857D01*
X158192985Y-74072857D02*
X158255842Y-74041429D01*
X158255842Y-74041429D02*
X158412985Y-74041429D01*
X158412985Y-74041429D02*
X158475842Y-74072857D01*
X158475842Y-74072857D02*
X158507271Y-74104286D01*
X158507271Y-74104286D02*
X158538700Y-74167143D01*
X158538700Y-74167143D02*
X158538700Y-74292857D01*
X158538700Y-74292857D02*
X158507271Y-74355715D01*
X158507271Y-74355715D02*
X158475842Y-74387143D01*
X158475842Y-74387143D02*
X158412985Y-74418572D01*
X161527142Y-74240128D02*
X161527142Y-73580128D01*
X161527142Y-73580128D02*
X161369999Y-73580128D01*
X161369999Y-73580128D02*
X161275713Y-73611557D01*
X161275713Y-73611557D02*
X161212856Y-73674414D01*
X161212856Y-73674414D02*
X161181427Y-73737271D01*
X161181427Y-73737271D02*
X161149999Y-73862985D01*
X161149999Y-73862985D02*
X161149999Y-73957271D01*
X161149999Y-73957271D02*
X161181427Y-74082985D01*
X161181427Y-74082985D02*
X161212856Y-74145842D01*
X161212856Y-74145842D02*
X161275713Y-74208700D01*
X161275713Y-74208700D02*
X161369999Y-74240128D01*
X161369999Y-74240128D02*
X161527142Y-74240128D01*
X160521427Y-74240128D02*
X160898570Y-74240128D01*
X160709999Y-74240128D02*
X160709999Y-73580128D01*
X160709999Y-73580128D02*
X160772856Y-73674414D01*
X160772856Y-73674414D02*
X160835713Y-73737271D01*
X160835713Y-73737271D02*
X160898570Y-73768700D01*
X160850128Y-64777143D02*
X160535842Y-64557143D01*
X160850128Y-64400000D02*
X160190128Y-64400000D01*
X160190128Y-64400000D02*
X160190128Y-64651429D01*
X160190128Y-64651429D02*
X160221557Y-64714286D01*
X160221557Y-64714286D02*
X160252985Y-64745715D01*
X160252985Y-64745715D02*
X160315842Y-64777143D01*
X160315842Y-64777143D02*
X160410128Y-64777143D01*
X160410128Y-64777143D02*
X160472985Y-64745715D01*
X160472985Y-64745715D02*
X160504414Y-64714286D01*
X160504414Y-64714286D02*
X160535842Y-64651429D01*
X160535842Y-64651429D02*
X160535842Y-64400000D01*
X160818700Y-65028572D02*
X160850128Y-65122858D01*
X160850128Y-65122858D02*
X160850128Y-65280000D01*
X160850128Y-65280000D02*
X160818700Y-65342858D01*
X160818700Y-65342858D02*
X160787271Y-65374286D01*
X160787271Y-65374286D02*
X160724414Y-65405715D01*
X160724414Y-65405715D02*
X160661557Y-65405715D01*
X160661557Y-65405715D02*
X160598700Y-65374286D01*
X160598700Y-65374286D02*
X160567271Y-65342858D01*
X160567271Y-65342858D02*
X160535842Y-65280000D01*
X160535842Y-65280000D02*
X160504414Y-65154286D01*
X160504414Y-65154286D02*
X160472985Y-65091429D01*
X160472985Y-65091429D02*
X160441557Y-65060000D01*
X160441557Y-65060000D02*
X160378700Y-65028572D01*
X160378700Y-65028572D02*
X160315842Y-65028572D01*
X160315842Y-65028572D02*
X160252985Y-65060000D01*
X160252985Y-65060000D02*
X160221557Y-65091429D01*
X160221557Y-65091429D02*
X160190128Y-65154286D01*
X160190128Y-65154286D02*
X160190128Y-65311429D01*
X160190128Y-65311429D02*
X160221557Y-65405715D01*
X160504414Y-65688571D02*
X160504414Y-65908571D01*
X160850128Y-66002857D02*
X160850128Y-65688571D01*
X160850128Y-65688571D02*
X160190128Y-65688571D01*
X160190128Y-65688571D02*
X160190128Y-66002857D01*
X160850128Y-66285714D02*
X160190128Y-66285714D01*
X160190128Y-66285714D02*
X160850128Y-66662857D01*
X160850128Y-66662857D02*
X160190128Y-66662857D01*
X160818700Y-66945715D02*
X160850128Y-67040001D01*
X160850128Y-67040001D02*
X160850128Y-67197143D01*
X160850128Y-67197143D02*
X160818700Y-67260001D01*
X160818700Y-67260001D02*
X160787271Y-67291429D01*
X160787271Y-67291429D02*
X160724414Y-67322858D01*
X160724414Y-67322858D02*
X160661557Y-67322858D01*
X160661557Y-67322858D02*
X160598700Y-67291429D01*
X160598700Y-67291429D02*
X160567271Y-67260001D01*
X160567271Y-67260001D02*
X160535842Y-67197143D01*
X160535842Y-67197143D02*
X160504414Y-67071429D01*
X160504414Y-67071429D02*
X160472985Y-67008572D01*
X160472985Y-67008572D02*
X160441557Y-66977143D01*
X160441557Y-66977143D02*
X160378700Y-66945715D01*
X160378700Y-66945715D02*
X160315842Y-66945715D01*
X160315842Y-66945715D02*
X160252985Y-66977143D01*
X160252985Y-66977143D02*
X160221557Y-67008572D01*
X160221557Y-67008572D02*
X160190128Y-67071429D01*
X160190128Y-67071429D02*
X160190128Y-67228572D01*
X160190128Y-67228572D02*
X160221557Y-67322858D01*
X160252985Y-67574286D02*
X160221557Y-67605714D01*
X160221557Y-67605714D02*
X160190128Y-67668572D01*
X160190128Y-67668572D02*
X160190128Y-67825714D01*
X160190128Y-67825714D02*
X160221557Y-67888572D01*
X160221557Y-67888572D02*
X160252985Y-67920000D01*
X160252985Y-67920000D02*
X160315842Y-67951429D01*
X160315842Y-67951429D02*
X160378700Y-67951429D01*
X160378700Y-67951429D02*
X160472985Y-67920000D01*
X160472985Y-67920000D02*
X160850128Y-67542857D01*
X160850128Y-67542857D02*
X160850128Y-67951429D01*
X162159999Y-69347271D02*
X162191427Y-69378700D01*
X162191427Y-69378700D02*
X162285713Y-69410128D01*
X162285713Y-69410128D02*
X162348570Y-69410128D01*
X162348570Y-69410128D02*
X162442856Y-69378700D01*
X162442856Y-69378700D02*
X162505713Y-69315842D01*
X162505713Y-69315842D02*
X162537142Y-69252985D01*
X162537142Y-69252985D02*
X162568570Y-69127271D01*
X162568570Y-69127271D02*
X162568570Y-69032985D01*
X162568570Y-69032985D02*
X162537142Y-68907271D01*
X162537142Y-68907271D02*
X162505713Y-68844414D01*
X162505713Y-68844414D02*
X162442856Y-68781557D01*
X162442856Y-68781557D02*
X162348570Y-68750128D01*
X162348570Y-68750128D02*
X162285713Y-68750128D01*
X162285713Y-68750128D02*
X162191427Y-68781557D01*
X162191427Y-68781557D02*
X162159999Y-68812985D01*
X161594285Y-68970128D02*
X161594285Y-69410128D01*
X161751427Y-68718700D02*
X161908570Y-69190128D01*
X161908570Y-69190128D02*
X161499999Y-69190128D01*
X172589999Y-64377271D02*
X172621427Y-64408700D01*
X172621427Y-64408700D02*
X172715713Y-64440128D01*
X172715713Y-64440128D02*
X172778570Y-64440128D01*
X172778570Y-64440128D02*
X172872856Y-64408700D01*
X172872856Y-64408700D02*
X172935713Y-64345842D01*
X172935713Y-64345842D02*
X172967142Y-64282985D01*
X172967142Y-64282985D02*
X172998570Y-64157271D01*
X172998570Y-64157271D02*
X172998570Y-64062985D01*
X172998570Y-64062985D02*
X172967142Y-63937271D01*
X172967142Y-63937271D02*
X172935713Y-63874414D01*
X172935713Y-63874414D02*
X172872856Y-63811557D01*
X172872856Y-63811557D02*
X172778570Y-63780128D01*
X172778570Y-63780128D02*
X172715713Y-63780128D01*
X172715713Y-63780128D02*
X172621427Y-63811557D01*
X172621427Y-63811557D02*
X172589999Y-63842985D01*
X172369999Y-63780128D02*
X171961427Y-63780128D01*
X171961427Y-63780128D02*
X172181427Y-64031557D01*
X172181427Y-64031557D02*
X172087142Y-64031557D01*
X172087142Y-64031557D02*
X172024285Y-64062985D01*
X172024285Y-64062985D02*
X171992856Y-64094414D01*
X171992856Y-64094414D02*
X171961427Y-64157271D01*
X171961427Y-64157271D02*
X171961427Y-64314414D01*
X171961427Y-64314414D02*
X171992856Y-64377271D01*
X171992856Y-64377271D02*
X172024285Y-64408700D01*
X172024285Y-64408700D02*
X172087142Y-64440128D01*
X172087142Y-64440128D02*
X172275713Y-64440128D01*
X172275713Y-64440128D02*
X172338570Y-64408700D01*
X172338570Y-64408700D02*
X172369999Y-64377271D01*
%TO.C,U3*%
X163440000Y-71940000D02*
X163440000Y-72035000D01*
X163440000Y-76965000D02*
X163440000Y-77060000D01*
X163440000Y-77060000D02*
X167560000Y-77060000D01*
X167560000Y-71940000D02*
X163440000Y-71940000D01*
X167560000Y-72035000D02*
X167560000Y-71940000D01*
X167560000Y-77060000D02*
X167560000Y-76965000D01*
X163140000Y-77300000D02*
X162660000Y-77300000D01*
X162900000Y-76970000D01*
X163140000Y-77300000D01*
G36*
X163140000Y-77300000D02*
G01*
X162660000Y-77300000D01*
X162900000Y-76970000D01*
X163140000Y-77300000D01*
G37*
%TO.C,C2*%
X170250000Y-61589420D02*
X170250000Y-61870580D01*
X171270000Y-61589420D02*
X171270000Y-61870580D01*
%TO.C,RSENS1*%
X167740000Y-65432936D02*
X167740000Y-66887064D01*
X169560000Y-65432936D02*
X169560000Y-66887064D01*
%TO.C,C9*%
X159120000Y-74040580D02*
X159120000Y-73759420D01*
X160140000Y-74040580D02*
X160140000Y-73759420D01*
%TO.C,D1*%
X160500000Y-73200000D02*
X160500000Y-75160000D01*
X161700000Y-73200000D02*
X161700000Y-75160000D01*
X161700000Y-75160000D02*
X160500000Y-75160000D01*
%TO.C,RSENS2*%
X161470000Y-65432936D02*
X161470000Y-66887064D01*
X163290000Y-65432936D02*
X163290000Y-66887064D01*
%TO.C,C4*%
X162190580Y-70030000D02*
X161909420Y-70030000D01*
X162190580Y-71050000D02*
X161909420Y-71050000D01*
%TO.C,C3*%
X171755000Y-61688748D02*
X171755000Y-62211252D01*
X173225000Y-61688748D02*
X173225000Y-62211252D01*
%TD*%
%LPC*%
D12*
%TO.C,REF\u002A\u002A*%
X150000000Y-59000000D03*
D13*
X150000000Y-59000000D03*
%TD*%
D12*
%TO.C,REF\u002A\u002A*%
X150000000Y-90000000D03*
D13*
X150000000Y-90000000D03*
%TD*%
D12*
%TO.C,REF\u002A\u002A*%
X181000000Y-59000000D03*
D13*
X181000000Y-59000000D03*
%TD*%
D14*
%TO.C,J2*%
X147240000Y-75750000D03*
D15*
X147240000Y-78250000D03*
%TD*%
D16*
%TO.C,J1*%
X149222500Y-66920000D03*
D17*
X149222500Y-70420000D03*
%TD*%
D12*
%TO.C,REF\u002A\u002A*%
X181000000Y-90000000D03*
D13*
X181000000Y-90000000D03*
%TD*%
D18*
%TO.C,U3*%
X162925000Y-76405000D03*
X162925000Y-75135000D03*
X162925000Y-73865000D03*
X162925000Y-72595000D03*
X168075000Y-72595000D03*
X168075000Y-73865000D03*
X168075000Y-75135000D03*
X168075000Y-76405000D03*
%TD*%
D19*
%TO.C,C2*%
X170760000Y-60955000D03*
X170760000Y-62505000D03*
%TD*%
D20*
%TO.C,RSENS1*%
X168650000Y-64697500D03*
X168650000Y-67622500D03*
%TD*%
D21*
%TO.C,C9*%
X159630000Y-74675000D03*
X159630000Y-73125000D03*
%TD*%
D22*
%TO.C,D1*%
X161100000Y-74600000D03*
X161100000Y-73200000D03*
%TD*%
D20*
%TO.C,RSENS2*%
X162380000Y-64697500D03*
X162380000Y-67622500D03*
%TD*%
D23*
%TO.C,MotorConn1*%
X170720000Y-58200000D03*
D17*
X167220000Y-58200000D03*
X163720000Y-58200000D03*
X160220000Y-58200000D03*
%TD*%
D24*
%TO.C,C4*%
X162825000Y-70540000D03*
X161275000Y-70540000D03*
%TD*%
D25*
%TO.C,C3*%
X172490000Y-61000000D03*
X172490000Y-62900000D03*
%TD*%
%LPD*%
M02*
