%TF.GenerationSoftware,KiCad,Pcbnew,9.0.7*%
%TF.CreationDate,2026-01-27T18:23:45+01:00*%
%TF.ProjectId,NEMA17_FOC_Driver,4e454d41-3137-45f4-964f-435f44726976,rev?*%
%TF.SameCoordinates,Original*%
%TF.FileFunction,Copper,L1,Top*%
%TF.FilePolarity,Positive*%
%FSLAX46Y46*%
G04 Gerber Fmt 4.6, Leading zero omitted, Abs format (unit mm)*
G04 Created by KiCad (PCBNEW 9.0.7) date 2026-01-27 18:23:45*
%MOMM*%
%LPD*%
G01*
G04 APERTURE LIST*
G04 Aperture macros list*
%AMRoundRect*
0 Rectangle with rounded corners*
0 $1 Rounding radius*
0 $2 $3 $4 $5 $6 $7 $8 $9 X,Y pos of 4 corners*
0 Add a 4 corners polygon primitive as box body*
4,1,4,$2,$3,$4,$5,$6,$7,$8,$9,$2,$3,0*
0 Add four circle primitives for the rounded corners*
1,1,$1+$1,$2,$3*
1,1,$1+$1,$4,$5*
1,1,$1+$1,$6,$7*
1,1,$1+$1,$8,$9*
0 Add four rect primitives between the rounded corners*
20,1,$1+$1,$2,$3,$4,$5,0*
20,1,$1+$1,$4,$5,$6,$7,0*
20,1,$1+$1,$6,$7,$8,$9,0*
20,1,$1+$1,$8,$9,$2,$3,0*%
G04 Aperture macros list end*
%TA.AperFunction,EtchedComponent*%
%ADD10C,0.000000*%
%TD*%
%TA.AperFunction,SMDPad,CuDef*%
%ADD11RoundRect,0.200000X0.200000X0.275000X-0.200000X0.275000X-0.200000X-0.275000X0.200000X-0.275000X0*%
%TD*%
%TA.AperFunction,SMDPad,CuDef*%
%ADD12RoundRect,0.250000X-0.450000X0.262500X-0.450000X-0.262500X0.450000X-0.262500X0.450000X0.262500X0*%
%TD*%
%TA.AperFunction,ComponentPad*%
%ADD13C,3.600000*%
%TD*%
%TA.AperFunction,ConnectorPad*%
%ADD14C,5.600000*%
%TD*%
%TA.AperFunction,SMDPad,CuDef*%
%ADD15RoundRect,0.225000X0.250000X-0.225000X0.250000X0.225000X-0.250000X0.225000X-0.250000X-0.225000X0*%
%TD*%
%TA.AperFunction,SMDPad,CuDef*%
%ADD16O,1.250000X0.549999*%
%TD*%
%TA.AperFunction,SMDPad,CuDef*%
%ADD17RoundRect,0.250000X-0.250000X-0.475000X0.250000X-0.475000X0.250000X0.475000X-0.250000X0.475000X0*%
%TD*%
%TA.AperFunction,SMDPad,CuDef*%
%ADD18R,1.498600X1.498600*%
%TD*%
%TA.AperFunction,SMDPad,CuDef*%
%ADD19R,0.304800X1.161999*%
%TD*%
%TA.AperFunction,SMDPad,CuDef*%
%ADD20R,5.180000X3.099999*%
%TD*%
%TA.AperFunction,SMDPad,CuDef*%
%ADD21R,0.698500X0.457200*%
%TD*%
%TA.AperFunction,SMDPad,CuDef*%
%ADD22RoundRect,0.250000X0.475000X-0.250000X0.475000X0.250000X-0.475000X0.250000X-0.475000X-0.250000X0*%
%TD*%
%TA.AperFunction,SMDPad,CuDef*%
%ADD23RoundRect,0.250000X-0.550000X1.500000X-0.550000X-1.500000X0.550000X-1.500000X0.550000X1.500000X0*%
%TD*%
%TA.AperFunction,SMDPad,CuDef*%
%ADD24R,1.200000X3.300000*%
%TD*%
%TA.AperFunction,SMDPad,CuDef*%
%ADD25RoundRect,0.125000X0.125000X-0.625000X0.125000X0.625000X-0.125000X0.625000X-0.125000X-0.625000X0*%
%TD*%
%TA.AperFunction,SMDPad,CuDef*%
%ADD26RoundRect,0.125000X0.625000X-0.125000X0.625000X0.125000X-0.625000X0.125000X-0.625000X-0.125000X0*%
%TD*%
%TA.AperFunction,SMDPad,CuDef*%
%ADD27RoundRect,0.250000X1.000000X0.650000X-1.000000X0.650000X-1.000000X-0.650000X1.000000X-0.650000X0*%
%TD*%
%TA.AperFunction,ComponentPad*%
%ADD28RoundRect,0.250000X-0.750000X0.600000X-0.750000X-0.600000X0.750000X-0.600000X0.750000X0.600000X0*%
%TD*%
%TA.AperFunction,ComponentPad*%
%ADD29O,2.000000X1.700000*%
%TD*%
%TA.AperFunction,SMDPad,CuDef*%
%ADD30RoundRect,0.225000X-0.225000X-0.250000X0.225000X-0.250000X0.225000X0.250000X-0.225000X0.250000X0*%
%TD*%
%TA.AperFunction,ComponentPad*%
%ADD31RoundRect,0.250001X-0.949999X0.949999X-0.949999X-0.949999X0.949999X-0.949999X0.949999X0.949999X0*%
%TD*%
%TA.AperFunction,ComponentPad*%
%ADD32C,2.400000*%
%TD*%
%TA.AperFunction,SMDPad,CuDef*%
%ADD33RoundRect,0.250000X0.250000X0.475000X-0.250000X0.475000X-0.250000X-0.475000X0.250000X-0.475000X0*%
%TD*%
%TA.AperFunction,SMDPad,CuDef*%
%ADD34RoundRect,0.200000X-0.200000X-0.275000X0.200000X-0.275000X0.200000X0.275000X-0.200000X0.275000X0*%
%TD*%
%TA.AperFunction,SMDPad,CuDef*%
%ADD35C,1.000000*%
%TD*%
%TA.AperFunction,ComponentPad*%
%ADD36RoundRect,0.250001X-0.949999X-0.949999X0.949999X-0.949999X0.949999X0.949999X-0.949999X0.949999X0*%
%TD*%
%TA.AperFunction,ViaPad*%
%ADD37C,0.600000*%
%TD*%
%TA.AperFunction,Conductor*%
%ADD38C,0.200000*%
%TD*%
%TA.AperFunction,Conductor*%
%ADD39C,1.000000*%
%TD*%
%TA.AperFunction,Conductor*%
%ADD40C,2.000000*%
%TD*%
%TA.AperFunction,Conductor*%
%ADD41C,0.500000*%
%TD*%
%TA.AperFunction,Conductor*%
%ADD42C,0.350000*%
%TD*%
G04 APERTURE END LIST*
D10*
%TA.AperFunction,EtchedComponent*%
%TO.C,U1*%
G36*
X162910000Y-66575000D02*
G01*
X162710000Y-66575000D01*
X162710000Y-65625000D01*
X162910000Y-65625000D01*
X162910000Y-66575000D01*
G37*
%TD.AperFunction*%
%TA.AperFunction,EtchedComponent*%
G36*
X168290000Y-66575000D02*
G01*
X168090000Y-66575000D01*
X168090000Y-65625000D01*
X168290000Y-65625000D01*
X168290000Y-66575000D01*
G37*
%TD.AperFunction*%
%TD*%
D11*
%TO.P,RLED_R1,1*%
%TO.N,LEDPIN_R*%
X180185000Y-83400000D03*
%TO.P,RLED_R1,2*%
%TO.N,Net-(LED1-Pad1)*%
X178535000Y-83400000D03*
%TD*%
D12*
%TO.P,RCAN1,1*%
%TO.N,CAN Low*%
X160530000Y-85637500D03*
%TO.P,RCAN1,2*%
%TO.N,CAN High*%
X160530000Y-87462500D03*
%TD*%
D13*
%TO.P,REF\u002A\u002A,1*%
%TO.N,N/C*%
X150000000Y-59000000D03*
D14*
X150000000Y-59000000D03*
%TD*%
D15*
%TO.P,C1,1*%
%TO.N,Net-(U1-CP2)*%
X171480000Y-64425000D03*
%TO.P,C1,2*%
%TO.N,Net-(U1-CP1)*%
X171480000Y-62875000D03*
%TD*%
D13*
%TO.P,REF\u002A\u002A,1*%
%TO.N,N/C*%
X150000000Y-90000000D03*
D14*
X150000000Y-90000000D03*
%TD*%
D16*
%TO.P,U5,1,TXD*%
%TO.N,TXD*%
X168145001Y-88425000D03*
%TO.P,U5,2,GND*%
%TO.N,GND*%
X168145001Y-87155000D03*
%TO.P,U5,3,VCC*%
%TO.N,+3.3V*%
X168145001Y-85885000D03*
%TO.P,U5,4,RXD*%
%TO.N,RXD*%
X168145001Y-84615000D03*
%TO.P,U5,5,NC*%
%TO.N,unconnected-(U5-NC-Pad5)*%
X162895001Y-84615000D03*
%TO.P,U5,6,CANL*%
%TO.N,CAN Low*%
X162895001Y-85885000D03*
%TO.P,U5,7,CANH*%
%TO.N,CAN High*%
X162895001Y-87155000D03*
%TO.P,U5,8,NC*%
%TO.N,unconnected-(U5-NC-Pad8)*%
X162895001Y-88425000D03*
%TD*%
D17*
%TO.P,C5,1*%
%TO.N,+12V*%
X158990000Y-82910000D03*
%TO.P,C5,2*%
%TO.N,GND*%
X160890000Y-82910000D03*
%TD*%
D18*
%TO.P,LED1,1,1*%
%TO.N,Net-(LED1-Pad1)*%
X176770000Y-83399999D03*
%TO.P,LED1,2,2*%
%TO.N,Net-(LED1-Pad2)*%
X176770000Y-85300001D03*
%TO.P,LED1,3,3*%
%TO.N,GND*%
X173970000Y-84350000D03*
%TD*%
D19*
%TO.P,U1,1,CP1*%
%TO.N,Net-(U1-CP1)*%
X169725074Y-63229000D03*
%TO.P,U1,2,CP2*%
%TO.N,Net-(U1-CP2)*%
X169075063Y-63229000D03*
%TO.P,U1,3,VCP*%
%TO.N,Net-(U1-VCP)*%
X168425051Y-63229000D03*
%TO.P,U1,4,VM*%
%TO.N,+12V*%
X167775040Y-63229000D03*
%TO.P,U1,5,OUT1*%
%TO.N,Net-(MotorConn1-Pin_1)*%
X167125028Y-63229000D03*
%TO.P,U1,6,VNEG*%
%TO.N,SRC12*%
X166475017Y-63229000D03*
%TO.P,U1,7,OUT2*%
%TO.N,Net-(MotorConn1-Pin_2)*%
X165825006Y-63229000D03*
%TO.P,U1,8,OUT3*%
%TO.N,Net-(MotorConn1-Pin_3)*%
X165174994Y-63229000D03*
%TO.P,U1,9,VNEG*%
%TO.N,SRC34*%
X164524983Y-63229000D03*
%TO.P,U1,10,OUT4*%
%TO.N,Net-(MotorConn1-Pin_4)*%
X163874972Y-63229000D03*
%TO.P,U1,11,VM*%
%TO.N,+12V*%
X163224960Y-63229000D03*
%TO.P,U1,12,NC*%
%TO.N,unconnected-(U1-NC-Pad12)*%
X162574949Y-63229000D03*
%TO.P,U1,13,NC*%
%TO.N,unconnected-(U1-NC-Pad13)*%
X161924937Y-63229000D03*
%TO.P,U1,14,VNEG*%
%TO.N,GND*%
X161274926Y-63229000D03*
%TO.P,U1,15,V3P3OUT*%
%TO.N,Net-(U1-V3P3OUT)*%
X161274926Y-68971000D03*
%TO.P,U1,16,NRESET*%
%TO.N,nRESET*%
X161924937Y-68971000D03*
%TO.P,U1,17,NSLEEP*%
%TO.N,nSLEEP*%
X162574949Y-68971000D03*
%TO.P,U1,18,NFAULT*%
%TO.N,nFAULT*%
X163224960Y-68971000D03*
%TO.P,U1,19,LGND*%
%TO.N,GND*%
X163874972Y-68971000D03*
%TO.P,U1,20,EN4*%
%TO.N,EN*%
X164524983Y-68971000D03*
%TO.P,U1,21,IN4*%
%TO.N,IN4*%
X165174994Y-68971000D03*
%TO.P,U1,22,EN3*%
%TO.N,EN*%
X165825006Y-68971000D03*
%TO.P,U1,23,IN3*%
%TO.N,IN3*%
X166475017Y-68971000D03*
%TO.P,U1,24,EN2*%
%TO.N,EN*%
X167125028Y-68971000D03*
%TO.P,U1,25,IN2*%
%TO.N,IN2*%
X167775040Y-68971000D03*
%TO.P,U1,26,EN1*%
%TO.N,EN*%
X168425051Y-68971000D03*
%TO.P,U1,27,IN1*%
%TO.N,IN1*%
X169075063Y-68971000D03*
%TO.P,U1,28,VNEG*%
%TO.N,GND*%
X169725074Y-68971000D03*
D20*
%TO.P,U1,29,EPAD*%
X165500000Y-66100000D03*
%TD*%
D21*
%TO.P,U2,1,FB*%
%TO.N,+3.3V*%
X160699850Y-79269999D03*
%TO.P,U2,2,EN*%
%TO.N,+12V*%
X160699850Y-80220000D03*
%TO.P,U2,3,VIN*%
X160699850Y-81170001D03*
%TO.P,U2,4,GND*%
%TO.N,GND*%
X163100150Y-81170001D03*
%TO.P,U2,5,SW*%
%TO.N,Net-(U2-SW)*%
X163100150Y-80220000D03*
%TO.P,U2,6,BST*%
%TO.N,Net-(U2-BST)*%
X163100150Y-79269999D03*
%TD*%
D22*
%TO.P,C11,1*%
%TO.N,+3.3V*%
X174370000Y-80920000D03*
%TO.P,C11,2*%
%TO.N,GND*%
X174370000Y-79020000D03*
%TD*%
D23*
%TO.P,CIN1,1*%
%TO.N,+12V*%
X156460000Y-66040000D03*
%TO.P,CIN1,2*%
%TO.N,GND*%
X156460000Y-71440000D03*
%TD*%
D22*
%TO.P,C10,1*%
%TO.N,+3.3V*%
X172410000Y-80920000D03*
%TO.P,C10,2*%
%TO.N,GND*%
X172410000Y-79020000D03*
%TD*%
D24*
%TO.P,L1,1*%
%TO.N,Net-(U2-SW)*%
X164510000Y-79650000D03*
%TO.P,L1,2*%
%TO.N,+3.3V*%
X167610000Y-79650000D03*
%TD*%
D25*
%TO.P,U4,1,VDD*%
%TO.N,+3.3V*%
X175870000Y-78665000D03*
%TO.P,U4,2,PF0*%
%TO.N,unconnected-(U4-PF0-Pad2)*%
X176670000Y-78665000D03*
%TO.P,U4,3,PF1*%
%TO.N,unconnected-(U4-PF1-Pad3)*%
X177470000Y-78665000D03*
%TO.P,U4,4,PG10*%
%TO.N,NRST*%
X178270000Y-78665000D03*
%TO.P,U4,5,PA0*%
%TO.N,unconnected-(U4-PA0-Pad5)*%
X179070000Y-78665000D03*
%TO.P,U4,6,PA1*%
%TO.N,SRC12*%
X179870000Y-78665000D03*
%TO.P,U4,7,PA2*%
%TO.N,LEDPIN_R*%
X180670000Y-78665000D03*
%TO.P,U4,8,PA3*%
%TO.N,LEDPIN_G*%
X181470000Y-78665000D03*
D26*
%TO.P,U4,9,PA4*%
%TO.N,unconnected-(U4-PA4-Pad9)*%
X182845000Y-77290000D03*
%TO.P,U4,10,PA5*%
%TO.N,unconnected-(U4-PA5-Pad10)*%
X182845000Y-76490000D03*
%TO.P,U4,11,PA6*%
%TO.N,EN*%
X182845000Y-75690000D03*
%TO.P,U4,12,OPAMP2_VINP*%
%TO.N,SRC34*%
X182845000Y-74890000D03*
%TO.P,U4,13,OPAMP3_VINP*%
%TO.N,unconnected-(U4-PB0-Pad13)*%
X182845000Y-74090000D03*
%TO.P,U4,14,VSSA*%
%TO.N,GND*%
X182845000Y-73290000D03*
%TO.P,U4,15,VDDA*%
%TO.N,+3.3V*%
X182845000Y-72490000D03*
%TO.P,U4,16,VSS*%
%TO.N,GND*%
X182845000Y-71690000D03*
D25*
%TO.P,U4,17,VDD*%
%TO.N,+3.3V*%
X181470000Y-70315000D03*
%TO.P,U4,18,TIM1_CH1*%
%TO.N,IN1*%
X180670000Y-70315000D03*
%TO.P,U4,19,TIM1_CH2*%
%TO.N,IN2*%
X179870000Y-70315000D03*
%TO.P,U4,20,TIM1_CH3*%
%TO.N,IN3*%
X179070000Y-70315000D03*
%TO.P,U4,21,TIM1_CH4*%
%TO.N,IN4*%
X178270000Y-70315000D03*
%TO.P,U4,22,FDCAN1_TX*%
%TO.N,TXD*%
X177470000Y-70315000D03*
%TO.P,U4,23,SYS_JTMS-SWDIO*%
%TO.N,SWDIO*%
X176670000Y-70315000D03*
%TO.P,U4,24,SYS_JTCK-SWCLK*%
%TO.N,SWCLK*%
X175870000Y-70315000D03*
D26*
%TO.P,U4,25,SPI1_NSS*%
%TO.N,ChipSelect*%
X174495000Y-71690000D03*
%TO.P,U4,26,SPI1_SCK*%
%TO.N,Clock*%
X174495000Y-72490000D03*
%TO.P,U4,27,SPI1_MISO*%
%TO.N,DataOut*%
X174495000Y-73290000D03*
%TO.P,U4,28,PB5*%
%TO.N,nFAULT*%
X174495000Y-74090000D03*
%TO.P,U4,29,PB6*%
%TO.N,nSLEEP*%
X174495000Y-74890000D03*
%TO.P,U4,30,PB7*%
%TO.N,nRESET*%
X174495000Y-75690000D03*
%TO.P,U4,31,FDCAN1_RX*%
%TO.N,RXD*%
X174495000Y-76490000D03*
%TO.P,U4,32,VSS*%
%TO.N,GND*%
X174495000Y-77290000D03*
%TD*%
D13*
%TO.P,REF\u002A\u002A,1*%
%TO.N,N/C*%
X181000000Y-59000000D03*
D14*
X181000000Y-59000000D03*
%TD*%
D27*
%TO.P,D2,1,A1*%
%TO.N,+12V*%
X158450000Y-75220000D03*
%TO.P,D2,2,A2*%
%TO.N,GND*%
X154450000Y-75220000D03*
%TD*%
D15*
%TO.P,C12,1*%
%TO.N,+3.3V*%
X169220000Y-80755000D03*
%TO.P,C12,2*%
%TO.N,GND*%
X169220000Y-79205000D03*
%TD*%
D28*
%TO.P,J2,1,Pin_1*%
%TO.N,CAN Low*%
X147240000Y-75750000D03*
D29*
%TO.P,J2,2,Pin_2*%
%TO.N,CAN High*%
X147240000Y-78250000D03*
%TD*%
D30*
%TO.P,C6,1*%
%TO.N,Net-(U2-BST)*%
X161355000Y-77790000D03*
%TO.P,C6,2*%
%TO.N,Net-(U2-SW)*%
X162905000Y-77790000D03*
%TD*%
D31*
%TO.P,J1,1,Pin_1*%
%TO.N,+12V*%
X149222500Y-66920000D03*
D32*
%TO.P,J1,2,Pin_2*%
%TO.N,GND*%
X149222500Y-70420000D03*
%TD*%
D33*
%TO.P,C8,1*%
%TO.N,Net-(C7-Pad2)*%
X164310000Y-82910000D03*
%TO.P,C8,2*%
%TO.N,GND*%
X162410000Y-82910000D03*
%TD*%
D34*
%TO.P,RLED_G1,1*%
%TO.N,Net-(LED1-Pad2)*%
X178535000Y-85310000D03*
%TO.P,RLED_G1,2*%
%TO.N,LEDPIN_G*%
X180185000Y-85310000D03*
%TD*%
D13*
%TO.P,REF\u002A\u002A,1*%
%TO.N,N/C*%
X181000000Y-90000000D03*
D14*
X181000000Y-90000000D03*
%TD*%
D33*
%TO.P,C7,1*%
%TO.N,+3.3V*%
X167710000Y-82900000D03*
%TO.P,C7,2*%
%TO.N,Net-(C7-Pad2)*%
X165810000Y-82900000D03*
%TD*%
D35*
%TO.P,REF\u002A\u002A,1*%
%TO.N,+3.3V*%
X185220000Y-79490000D03*
%TO.P,REF\u002A\u002A,2*%
%TO.N,SWCLK*%
X185220000Y-76990000D03*
%TO.P,REF\u002A\u002A,3*%
%TO.N,GND*%
X185220000Y-74490000D03*
%TO.P,REF\u002A\u002A,4*%
%TO.N,SWDIO*%
X185220000Y-71990000D03*
%TO.P,REF\u002A\u002A,5*%
%TO.N,NRST*%
X185220000Y-69490000D03*
%TD*%
D11*
%TO.P,R_BOOT1,1*%
%TO.N,RXD*%
X172695000Y-76490000D03*
%TO.P,R_BOOT1,2*%
%TO.N,GND*%
X171045000Y-76490000D03*
%TD*%
D15*
%TO.P,C13,1*%
%TO.N,+3.3V*%
X170690000Y-80755000D03*
%TO.P,C13,2*%
%TO.N,GND*%
X170690000Y-79205000D03*
%TD*%
D36*
%TO.P,MotorConn1,1,Pin_1*%
%TO.N,Net-(MotorConn1-Pin_1)*%
X170720000Y-58200000D03*
D32*
%TO.P,MotorConn1,2,Pin_2*%
%TO.N,Net-(MotorConn1-Pin_2)*%
X167220000Y-58200000D03*
%TO.P,MotorConn1,3,Pin_3*%
%TO.N,Net-(MotorConn1-Pin_3)*%
X163720000Y-58200000D03*
%TO.P,MotorConn1,4,Pin_4*%
%TO.N,Net-(MotorConn1-Pin_4)*%
X160220000Y-58200000D03*
%TD*%
D37*
%TO.N,Net-(U1-VCP)*%
X169430149Y-62168743D03*
%TO.N,GND*%
X168710000Y-67510000D03*
X185210000Y-74500000D03*
X174495000Y-77290000D03*
X168790000Y-66120000D03*
X162380000Y-67622500D03*
X165500000Y-66100000D03*
X182845000Y-71690000D03*
X162350000Y-66100000D03*
X173970000Y-84350000D03*
X182845000Y-73290000D03*
%TO.N,Net-(U1-V3P3OUT)*%
X161280000Y-70510000D03*
%TO.N,+12V*%
X170728571Y-60255704D03*
X172490000Y-61000000D03*
X160000000Y-61000000D03*
X159500000Y-60500000D03*
X159490000Y-61510000D03*
X160510000Y-60510000D03*
X160500000Y-61510000D03*
X172490000Y-60270000D03*
X171580000Y-60510000D03*
X170760000Y-60955000D03*
%TO.N,+3.3V*%
X162925000Y-75135000D03*
X185220000Y-79490000D03*
X162925000Y-76405000D03*
%TO.N,SRC12*%
X168630000Y-64740000D03*
X179870000Y-78665000D03*
%TO.N,SRC34*%
X182845000Y-74890000D03*
X162340000Y-64680000D03*
%TO.N,RXD*%
X174495000Y-76490000D03*
X168145001Y-84615000D03*
%TO.N,Clock*%
X174495000Y-72490000D03*
%TO.N,ChipSelect*%
X174495000Y-71690000D03*
%TO.N,DataOut*%
X174495000Y-73290000D03*
%TO.N,TXD*%
X177470000Y-76490000D03*
X168145001Y-88425000D03*
%TO.N,SWDIO*%
X185211000Y-71990000D03*
X176670000Y-70315000D03*
%TO.N,SWCLK*%
X185211000Y-76990000D03*
X175870000Y-70315000D03*
%TO.N,NRST*%
X185220000Y-69490000D03*
X178270000Y-78665000D03*
%TD*%
D38*
%TO.N,Net-(U1-CP1)*%
X171480000Y-62875000D02*
X170029074Y-62875000D01*
X170029074Y-62875000D02*
X169725074Y-63179000D01*
%TO.N,Net-(U1-CP2)*%
X169075063Y-64039388D02*
X169075063Y-63179000D01*
X169460675Y-64425000D02*
X169075063Y-64039388D01*
X171480000Y-64425000D02*
X169460675Y-64425000D01*
%TO.N,Net-(U1-VCP)*%
X168425051Y-62474949D02*
X168425051Y-63179000D01*
X168731257Y-62168743D02*
X168425051Y-62474949D01*
X169430149Y-62168743D02*
X168731257Y-62168743D01*
%TO.N,GND*%
X168511073Y-66876000D02*
X166276000Y-66876000D01*
X162410000Y-81860151D02*
X163100150Y-81170001D01*
X163407471Y-67622500D02*
X163874972Y-68090001D01*
X159864000Y-83936000D02*
X160890000Y-82910000D01*
X169220000Y-79205000D02*
X170690000Y-79205000D01*
D39*
X169220000Y-79205000D02*
X174185000Y-79205000D01*
D38*
X163874972Y-68090001D02*
X163874972Y-69021000D01*
X182845000Y-71690000D02*
X183400918Y-71690000D01*
X168414678Y-65324000D02*
X162585322Y-65324000D01*
X166655000Y-87155000D02*
X168145001Y-87155000D01*
X184409000Y-72698082D02*
X184409000Y-72930982D01*
X168537500Y-67510000D02*
X168087500Y-67060000D01*
X185210000Y-73731982D02*
X185210000Y-74500000D01*
D39*
X174370000Y-79020000D02*
X174370000Y-77616000D01*
D38*
X174370000Y-79020000D02*
X174370000Y-77415000D01*
X170690000Y-79205000D02*
X172225000Y-79205000D01*
X152047500Y-77478660D02*
X158504840Y-83936000D01*
X162410000Y-82910000D02*
X166655000Y-87155000D01*
X152047500Y-74160000D02*
X152047500Y-77478660D01*
X168790000Y-66120000D02*
X168670000Y-66000000D01*
X151137500Y-73250000D02*
X152047500Y-74160000D01*
X169725074Y-68090001D02*
X168511073Y-66876000D01*
X162134057Y-65324000D02*
X164724000Y-65324000D01*
X168670000Y-66000000D02*
X168670000Y-65579322D01*
X183400918Y-71690000D02*
X184409000Y-72698082D01*
X162942500Y-67060000D02*
X162380000Y-67622500D01*
X172225000Y-79205000D02*
X172410000Y-79020000D01*
X170950001Y-84350000D02*
X168145001Y-87155000D01*
X171045000Y-76490000D02*
X171045000Y-78850000D01*
X173970000Y-84350000D02*
X170950001Y-84350000D01*
X166276000Y-66876000D02*
X165500000Y-66100000D01*
X168710000Y-67510000D02*
X168537500Y-67510000D01*
X174370000Y-77415000D02*
X174495000Y-77290000D01*
X171045000Y-78850000D02*
X170690000Y-79205000D01*
X161274926Y-63179000D02*
X161274926Y-64464869D01*
D39*
X174370000Y-77616000D02*
X174495000Y-77491000D01*
D38*
X168087500Y-67060000D02*
X162942500Y-67060000D01*
X162380000Y-67622500D02*
X163407471Y-67622500D01*
X163874972Y-69021000D02*
X163874972Y-67725028D01*
X151370000Y-73482500D02*
X152047500Y-74160000D01*
X162410000Y-82910000D02*
X162410000Y-81860151D01*
X162350000Y-65559322D02*
X162350000Y-66100000D01*
X160890000Y-82910000D02*
X162410000Y-82910000D01*
X161274926Y-64464869D02*
X162134057Y-65324000D01*
X162585322Y-65324000D02*
X162350000Y-65559322D01*
X151370000Y-68790000D02*
X151370000Y-73482500D01*
D39*
X174185000Y-79205000D02*
X174370000Y-79020000D01*
D38*
X164724000Y-65324000D02*
X165500000Y-66100000D01*
X169725074Y-69021000D02*
X169725074Y-68090001D01*
X172410000Y-79020000D02*
X174370000Y-79020000D01*
X168670000Y-65579322D02*
X168414678Y-65324000D01*
X163874972Y-67725028D02*
X165500000Y-66100000D01*
X184409000Y-72930982D02*
X185210000Y-73731982D01*
X158504840Y-83936000D02*
X159864000Y-83936000D01*
%TO.N,Net-(U1-V3P3OUT)*%
X161274926Y-70504926D02*
X161280000Y-70510000D01*
X161274926Y-69021000D02*
X161274926Y-70504926D01*
D40*
%TO.N,+12V*%
X158070000Y-61000000D02*
X160000000Y-61000000D01*
X154310000Y-65140000D02*
X150880000Y-65140000D01*
D38*
X162470000Y-61530000D02*
X160520000Y-61530000D01*
X160699850Y-81170001D02*
X160699850Y-81200150D01*
D41*
X161200000Y-61180000D02*
X160180000Y-61180000D01*
D40*
X156155000Y-62915000D02*
X158070000Y-61000000D01*
D42*
X170220000Y-60550000D02*
X170514296Y-60255704D01*
D38*
X163053349Y-62248001D02*
X163053349Y-62147001D01*
D42*
X171575000Y-61300000D02*
X171920000Y-60955000D01*
X169160000Y-61300000D02*
X170220000Y-60240000D01*
D38*
X160699850Y-80820000D02*
X160699850Y-80220000D01*
D40*
X151710000Y-66789000D02*
X152661000Y-66789000D01*
D42*
X170220000Y-60240000D02*
X170220000Y-60550000D01*
D39*
X158450000Y-75220000D02*
X158450000Y-77780000D01*
D42*
X169710000Y-61060000D02*
X170220000Y-61060000D01*
D40*
X156770000Y-66480000D02*
X156770000Y-64230000D01*
D42*
X168920000Y-61300000D02*
X169160000Y-61300000D01*
D40*
X151710000Y-66789000D02*
X152281000Y-66789000D01*
D38*
X162966959Y-61990000D02*
X160840000Y-61990000D01*
D40*
X155020000Y-61000000D02*
X158070000Y-61000000D01*
D38*
X163123960Y-62147001D02*
X163224960Y-62248001D01*
D42*
X163224960Y-62298001D02*
X162436959Y-61510000D01*
D40*
X153105000Y-62915000D02*
X155020000Y-61000000D01*
D42*
X169770000Y-60550000D02*
X170220000Y-60550000D01*
X170290000Y-61300000D02*
X171575000Y-61300000D01*
D41*
X161010000Y-61490000D02*
X161500000Y-61490000D01*
D42*
X170220000Y-60860000D02*
X170728571Y-60351429D01*
D38*
X156770000Y-65680000D02*
X160302999Y-62147001D01*
D39*
X156460000Y-66040000D02*
X158450000Y-68030000D01*
X170728571Y-60255704D02*
X172475704Y-60255704D01*
X149343500Y-66799000D02*
X149222500Y-66920000D01*
D38*
X163123960Y-62147001D02*
X162966959Y-61990000D01*
X160302999Y-62147001D02*
X163123960Y-62147001D01*
D40*
X150880000Y-65140000D02*
X153105000Y-62915000D01*
D39*
X157540000Y-67840000D02*
X150700000Y-67840000D01*
X171920000Y-60955000D02*
X172445000Y-60955000D01*
D38*
X163053349Y-62147001D02*
X162377001Y-62147001D01*
X160699850Y-80220000D02*
X160470001Y-80220000D01*
D42*
X170220000Y-61060000D02*
X170220000Y-60860000D01*
X170290000Y-61300000D02*
X170635000Y-60955000D01*
D38*
X160740000Y-60510000D02*
X160510000Y-60510000D01*
D39*
X172445000Y-60955000D02*
X172490000Y-61000000D01*
D38*
X163224960Y-62248001D02*
X162766959Y-61790000D01*
X160120000Y-60120000D02*
X160510000Y-60510000D01*
D39*
X172490000Y-61000000D02*
X172490000Y-60270000D01*
D38*
X160520000Y-61530000D02*
X160500000Y-61510000D01*
D40*
X155060000Y-64770000D02*
X156770000Y-66480000D01*
D38*
X161010000Y-61000000D02*
X160500000Y-61510000D01*
D40*
X156770000Y-64230000D02*
X160000000Y-61000000D01*
D38*
X163224960Y-62248001D02*
X163158001Y-62248001D01*
D40*
X150690000Y-66789000D02*
X154769000Y-66789000D01*
D39*
X149659000Y-66799000D02*
X149343500Y-66799000D01*
D41*
X160570000Y-61880000D02*
X160060000Y-61370000D01*
D40*
X150690000Y-66789000D02*
X151710000Y-66789000D01*
D41*
X160060000Y-61370000D02*
X160060000Y-61150000D01*
D38*
X160840000Y-61990000D02*
X160840000Y-61850000D01*
D39*
X158450000Y-68030000D02*
X158450000Y-75220000D01*
D38*
X163224960Y-63179000D02*
X163224960Y-62284960D01*
D40*
X150880000Y-65140000D02*
X150880000Y-65262500D01*
X150880000Y-65140000D02*
X151250000Y-64770000D01*
X159043732Y-81972318D02*
X160196050Y-80820000D01*
D42*
X170728571Y-60351429D02*
X170728571Y-60255704D01*
D39*
X170760000Y-60955000D02*
X171920000Y-60955000D01*
X150700000Y-67840000D02*
X149659000Y-66799000D01*
D40*
X151250000Y-64770000D02*
X155060000Y-64770000D01*
D41*
X162280000Y-61790000D02*
X160660000Y-61790000D01*
D42*
X163224960Y-63229000D02*
X163224960Y-62298001D01*
D40*
X150880000Y-65262500D02*
X149222500Y-66920000D01*
D38*
X160699850Y-81200150D02*
X158990000Y-82910000D01*
X162766959Y-61790000D02*
X162280000Y-61790000D01*
D40*
X156155000Y-62915000D02*
X153105000Y-62915000D01*
D42*
X170514296Y-60255704D02*
X170728571Y-60255704D01*
D40*
X159043732Y-82635000D02*
X159043732Y-81972318D01*
D42*
X167775040Y-63229000D02*
X167775040Y-62444960D01*
X169020000Y-61300000D02*
X169770000Y-60550000D01*
D38*
X162377001Y-62147001D02*
X160740000Y-60510000D01*
D42*
X162436959Y-61510000D02*
X160500000Y-61510000D01*
D39*
X158450000Y-68750000D02*
X157540000Y-67840000D01*
D41*
X160660000Y-61790000D02*
X160570000Y-61880000D01*
D40*
X149262050Y-66789000D02*
X150690000Y-66789000D01*
D38*
X163224960Y-63179000D02*
X163224960Y-62248001D01*
D42*
X170220000Y-60550000D02*
X169710000Y-61060000D01*
D38*
X163224960Y-62248001D02*
X163053349Y-62248001D01*
D39*
X172475704Y-60255704D02*
X172490000Y-60270000D01*
D40*
X160196050Y-80820000D02*
X160699850Y-80820000D01*
D38*
X170728571Y-60255704D02*
X170760000Y-60287133D01*
X160699850Y-81170001D02*
X160699850Y-80820000D01*
D41*
X160180000Y-61180000D02*
X160000000Y-61000000D01*
D40*
X158690000Y-78020000D02*
X158690000Y-82281268D01*
D39*
X158450000Y-77780000D02*
X158690000Y-78020000D01*
D38*
X160840000Y-61850000D02*
X160500000Y-61510000D01*
D42*
X167775040Y-62444960D02*
X168920000Y-61300000D01*
X170635000Y-60955000D02*
X170760000Y-60955000D01*
D40*
X152281000Y-66789000D02*
X156155000Y-62915000D01*
D42*
X169160000Y-61300000D02*
X170290000Y-61300000D01*
D38*
X163224960Y-62284960D02*
X162470000Y-61530000D01*
D39*
X158450000Y-75220000D02*
X158450000Y-68750000D01*
D41*
X162280000Y-61790000D02*
X162280000Y-61740000D01*
D40*
X158690000Y-82281268D02*
X159043732Y-82635000D01*
X152661000Y-66789000D02*
X154310000Y-65140000D01*
D38*
%TO.N,Net-(U2-BST)*%
X163100150Y-79269999D02*
X162834999Y-79269999D01*
X162834999Y-79269999D02*
X161355000Y-77790000D01*
%TO.N,Net-(U2-SW)*%
X163100150Y-80220000D02*
X163940000Y-80220000D01*
X163940000Y-80220000D02*
X164510000Y-79650000D01*
X162905000Y-78045000D02*
X164510000Y-79650000D01*
X162905000Y-77790000D02*
X162905000Y-78045000D01*
%TO.N,+3.3V*%
X172410000Y-80920000D02*
X174370000Y-80920000D01*
X162925000Y-75135000D02*
X162925000Y-76405000D01*
X175870000Y-79420000D02*
X175870000Y-78665000D01*
X183400918Y-72490000D02*
X182845000Y-72490000D01*
X167610000Y-79650000D02*
X168115000Y-79650000D01*
D41*
X164365000Y-76405000D02*
X167610000Y-79650000D01*
D38*
X185220000Y-79490000D02*
X185220000Y-78510000D01*
X185220000Y-79490000D02*
X184230000Y-78500000D01*
X176171001Y-77614000D02*
X175870000Y-77915001D01*
X175870000Y-77915001D02*
X175870000Y-78665000D01*
X184230000Y-78500000D02*
X182699082Y-78500000D01*
X182095001Y-72490000D02*
X182845000Y-72490000D01*
X185220000Y-78510000D02*
X184409000Y-77699000D01*
X168115000Y-79650000D02*
X169220000Y-80755000D01*
D41*
X167610000Y-79650000D02*
X167070000Y-80190000D01*
D39*
X167710000Y-82900000D02*
X167710000Y-79750000D01*
D38*
X167610000Y-79650000D02*
X167610000Y-82800000D01*
X167210062Y-83399938D02*
X167210062Y-84950061D01*
X181470000Y-70315000D02*
X181470000Y-71864999D01*
D41*
X167070000Y-84916718D02*
X168038282Y-85885000D01*
D39*
X167610000Y-79650000D02*
X168880000Y-80920000D01*
D38*
X184409000Y-73498082D02*
X183400918Y-72490000D01*
X184409000Y-77699000D02*
X184409000Y-73498082D01*
X167710000Y-82900000D02*
X167210062Y-83399938D01*
D39*
X168880000Y-80920000D02*
X174370000Y-80920000D01*
D38*
X172245000Y-80755000D02*
X172410000Y-80920000D01*
D41*
X162925000Y-76405000D02*
X164365000Y-76405000D01*
D38*
X167210062Y-84950061D02*
X168145001Y-85885000D01*
D41*
X160699850Y-79269999D02*
X160454000Y-79024149D01*
D38*
X181813082Y-77614000D02*
X176171001Y-77614000D01*
X174370000Y-80920000D02*
X175870000Y-79420000D01*
X169220000Y-80755000D02*
X170690000Y-80755000D01*
X167610000Y-82800000D02*
X167710000Y-82900000D01*
X170690000Y-80755000D02*
X172245000Y-80755000D01*
D41*
X167070000Y-80190000D02*
X167070000Y-84916718D01*
D38*
X181470000Y-71864999D02*
X182095001Y-72490000D01*
D41*
X161302758Y-76405000D02*
X162925000Y-76405000D01*
D38*
X167209001Y-83400999D02*
X167710000Y-82900000D01*
D41*
X160454000Y-79024149D02*
X160454000Y-77253758D01*
D38*
X182699082Y-78500000D02*
X181813082Y-77614000D01*
D39*
X167710000Y-79750000D02*
X167610000Y-79650000D01*
D41*
X160454000Y-77253758D02*
X161302758Y-76405000D01*
X168038282Y-85885000D02*
X168145001Y-85885000D01*
D38*
%TO.N,Net-(C7-Pad2)*%
X165800000Y-82910000D02*
X165810000Y-82900000D01*
X164310000Y-82910000D02*
X165800000Y-82910000D01*
%TO.N,CAN High*%
X148490000Y-78250000D02*
X147200000Y-78250000D01*
X162587501Y-87462500D02*
X162895001Y-87155000D01*
X157702500Y-87462500D02*
X148490000Y-78250000D01*
X160530000Y-87462500D02*
X157702500Y-87462500D01*
X160530000Y-87462500D02*
X162587501Y-87462500D01*
%TO.N,CAN Low*%
X157087500Y-85637500D02*
X147200000Y-75750000D01*
X160530000Y-85637500D02*
X157087500Y-85637500D01*
X160530000Y-85637500D02*
X162647501Y-85637500D01*
X162647501Y-85637500D02*
X162895001Y-85885000D01*
%TO.N,Net-(LED1-Pad1)*%
X178535000Y-83400000D02*
X176770000Y-83399999D01*
%TO.N,Net-(LED1-Pad2)*%
X178535000Y-85310000D02*
X176779999Y-85310000D01*
X176779999Y-85310000D02*
X176770000Y-85300001D01*
D42*
%TO.N,Net-(MotorConn1-Pin_1)*%
X167125028Y-63229000D02*
X167125028Y-61794972D01*
X167125028Y-61794972D02*
X170720000Y-58200000D01*
%TO.N,Net-(MotorConn1-Pin_3)*%
X165174994Y-63229000D02*
X165174994Y-59654994D01*
X165174994Y-59654994D02*
X163720000Y-58200000D01*
D39*
%TO.N,Net-(MotorConn1-Pin_4)*%
X160220000Y-58200000D02*
X160522999Y-58200000D01*
D42*
X163874972Y-61854972D02*
X163874972Y-63229000D01*
X160220000Y-58200000D02*
X163874972Y-61854972D01*
X160400000Y-58200000D02*
X160220000Y-58200000D01*
%TO.N,Net-(MotorConn1-Pin_2)*%
X165825006Y-59594994D02*
X167220000Y-58200000D01*
X165825006Y-63229000D02*
X165825006Y-59594994D01*
D38*
%TO.N,LEDPIN_G*%
X180185000Y-85310000D02*
X181470000Y-84025000D01*
X181470000Y-84025000D02*
X181470000Y-78665000D01*
%TO.N,LEDPIN_R*%
X180185000Y-83400000D02*
X180670000Y-82915000D01*
X180670000Y-82915000D02*
X180670000Y-78665000D01*
%TO.N,SRC12*%
X168352998Y-64210999D02*
X166646628Y-64210999D01*
X168630000Y-64740000D02*
X168630000Y-64488001D01*
X168630000Y-64488001D02*
X168352998Y-64210999D01*
X166475017Y-64039388D02*
X166475017Y-63179000D01*
X166646628Y-64210999D02*
X166475017Y-64039388D01*
%TO.N,SRC34*%
X162340000Y-64680000D02*
X162809001Y-64210999D01*
X164524983Y-64039388D02*
X164524983Y-63179000D01*
X162809001Y-64210999D02*
X164353372Y-64210999D01*
X164353372Y-64210999D02*
X164524983Y-64039388D01*
%TO.N,RXD*%
X174495000Y-76490000D02*
X172695000Y-76490000D01*
%TO.N,nRESET*%
X161924937Y-69951999D02*
X167662938Y-75690000D01*
X167662938Y-75690000D02*
X174495000Y-75690000D01*
X161924937Y-69021000D02*
X161924937Y-69951999D01*
%TO.N,nSLEEP*%
X162574949Y-69951999D02*
X167512950Y-74890000D01*
X162574949Y-69021000D02*
X162574949Y-69951999D01*
X167512950Y-74890000D02*
X174495000Y-74890000D01*
%TO.N,IN1*%
X180670000Y-69565001D02*
X179094000Y-67989001D01*
X169075063Y-69881388D02*
X169075063Y-69021000D01*
X169246674Y-70052999D02*
X169075063Y-69881388D01*
X172267472Y-67989001D02*
X170203474Y-70052999D01*
X180670000Y-70315000D02*
X180670000Y-69565001D01*
X170203474Y-70052999D02*
X169246674Y-70052999D01*
X179094000Y-67989001D02*
X172267472Y-67989001D01*
%TO.N,EN*%
X167125028Y-69021000D02*
X167125028Y-68160612D01*
X167125028Y-68090001D02*
X167125028Y-69021000D01*
X164625983Y-67989001D02*
X165653394Y-67989001D01*
X166312894Y-71656999D02*
X170867874Y-71656999D01*
X165653394Y-67989001D02*
X165825006Y-68160613D01*
X175288082Y-71089000D02*
X176869000Y-72669918D01*
X170867874Y-71656999D02*
X171435873Y-71089000D01*
X176869000Y-72669918D02*
X176869000Y-76738943D01*
X180694001Y-77091000D02*
X182095001Y-75690000D01*
X164524983Y-69021000D02*
X164524983Y-68090001D01*
X166183595Y-71540000D02*
X166195895Y-71540000D01*
X176869000Y-76738943D02*
X177221057Y-77091000D01*
X164524983Y-68090001D02*
X164625983Y-67989001D01*
X165825006Y-68160612D02*
X165825006Y-69021000D01*
X166953417Y-67989001D02*
X165996617Y-67989001D01*
X182095001Y-75690000D02*
X182845000Y-75690000D01*
X167125028Y-68160612D02*
X166953417Y-67989001D01*
X167226028Y-67989001D02*
X167125028Y-68090001D01*
X168425051Y-69021000D02*
X168425051Y-68160612D01*
X177221057Y-77091000D02*
X180694001Y-77091000D01*
X164524983Y-69021000D02*
X164524983Y-69881388D01*
X166195895Y-71540000D02*
X166312894Y-71656999D01*
X165825006Y-68160613D02*
X165825006Y-69021000D01*
X164524983Y-69881388D02*
X166183595Y-71540000D01*
X171435873Y-71089000D02*
X175288082Y-71089000D01*
X168253440Y-67989001D02*
X167226028Y-67989001D01*
X168425051Y-68160612D02*
X168253440Y-67989001D01*
X165996617Y-67989001D02*
X165825006Y-68160612D01*
%TO.N,IN3*%
X172527673Y-68863000D02*
X170535674Y-70854999D01*
X170535674Y-70854999D02*
X167624999Y-70854999D01*
X167624999Y-70854999D02*
X166475017Y-69705017D01*
X179070000Y-70315000D02*
X179070000Y-69370000D01*
X178563000Y-68863000D02*
X172527673Y-68863000D01*
X166475017Y-69705017D02*
X166475017Y-69021000D01*
X179070000Y-69370000D02*
X178563000Y-68863000D01*
%TO.N,nFAULT*%
X163224960Y-69021000D02*
X163224960Y-69951999D01*
X167362961Y-74090000D02*
X174495000Y-74090000D01*
X163224960Y-69951999D02*
X167362961Y-74090000D01*
%TO.N,IN4*%
X165174994Y-69951999D02*
X165174994Y-69021000D01*
X170701774Y-71255999D02*
X166478994Y-71255999D01*
X178270000Y-69565001D02*
X177968999Y-69264000D01*
X178270000Y-70315000D02*
X178270000Y-69565001D01*
X166478994Y-71255999D02*
X165174994Y-69951999D01*
X177968999Y-69264000D02*
X172693773Y-69264000D01*
X172693773Y-69264000D02*
X170701774Y-71255999D01*
%TO.N,IN2*%
X167775040Y-69881388D02*
X167775040Y-69021000D01*
X178766999Y-68462000D02*
X172361573Y-68462000D01*
X172361573Y-68462000D02*
X170369574Y-70453999D01*
X168347651Y-70453999D02*
X167775040Y-69881388D01*
X179870000Y-70315000D02*
X179870000Y-69565001D01*
X170369574Y-70453999D02*
X168347651Y-70453999D01*
X179870000Y-69565001D02*
X178766999Y-68462000D01*
%TO.N,TXD*%
X177470000Y-70315000D02*
X177470000Y-76490000D01*
%TD*%
%TA.AperFunction,Conductor*%
%TO.N,Net-(MotorConn1-Pin_2)*%
G36*
X167221399Y-58202187D02*
G01*
X167224618Y-58205105D01*
X167430568Y-58477340D01*
X167938941Y-59149334D01*
X167941199Y-59157998D01*
X167939444Y-59162730D01*
X166003462Y-62166547D01*
X165996100Y-62171645D01*
X165993628Y-62171909D01*
X165663085Y-62171909D01*
X165654812Y-62168482D01*
X165651385Y-62160209D01*
X165651457Y-62158911D01*
X166061613Y-58485179D01*
X166065936Y-58477340D01*
X166070504Y-58475105D01*
X167212555Y-58200788D01*
X167221399Y-58202187D01*
G37*
%TD.AperFunction*%
%TD*%
%TA.AperFunction,Conductor*%
%TO.N,Net-(MotorConn1-Pin_1)*%
G36*
X170714631Y-58203451D02*
G01*
X170718993Y-58211272D01*
X170718993Y-58213982D01*
X170581278Y-59394698D01*
X170576916Y-59402519D01*
X170576252Y-59403007D01*
X168027922Y-61142108D01*
X168019157Y-61143941D01*
X168013054Y-61140717D01*
X167779282Y-60906945D01*
X167775855Y-60898672D01*
X167777890Y-60892079D01*
X169516993Y-58343744D01*
X169524485Y-58338844D01*
X169525276Y-58338723D01*
X170706017Y-58201006D01*
X170714631Y-58203451D01*
G37*
%TD.AperFunction*%
%TD*%
%TA.AperFunction,Conductor*%
%TO.N,GND*%
G36*
X181002562Y-54000605D02*
G01*
X181407746Y-54017364D01*
X181417919Y-54018207D01*
X181817817Y-54068054D01*
X181827901Y-54069737D01*
X182222294Y-54152432D01*
X182232208Y-54154942D01*
X182618436Y-54269928D01*
X182628104Y-54273247D01*
X183003502Y-54419728D01*
X183012887Y-54423845D01*
X183374880Y-54600813D01*
X183383894Y-54605690D01*
X183730070Y-54811966D01*
X183738638Y-54817564D01*
X184066593Y-55051719D01*
X184074674Y-55058010D01*
X184382155Y-55318433D01*
X184389695Y-55325374D01*
X184674625Y-55610304D01*
X184681566Y-55617844D01*
X184941989Y-55925325D01*
X184948284Y-55933412D01*
X185182431Y-56261355D01*
X185188037Y-56269935D01*
X185394309Y-56616105D01*
X185399186Y-56625119D01*
X185576154Y-56987112D01*
X185580271Y-56996497D01*
X185726747Y-57371883D01*
X185730075Y-57381576D01*
X185845053Y-57767778D01*
X185847569Y-57777714D01*
X185930260Y-58172089D01*
X185931947Y-58182197D01*
X185981790Y-58582059D01*
X185982636Y-58592273D01*
X185999394Y-58997437D01*
X185999500Y-59002561D01*
X185999500Y-68575565D01*
X185979815Y-68642604D01*
X185927011Y-68688359D01*
X185857853Y-68698303D01*
X185806610Y-68678668D01*
X185693918Y-68603370D01*
X185693907Y-68603364D01*
X185511839Y-68527950D01*
X185511829Y-68527947D01*
X185318543Y-68489500D01*
X185318541Y-68489500D01*
X185121459Y-68489500D01*
X185121457Y-68489500D01*
X184928170Y-68527947D01*
X184928160Y-68527950D01*
X184746092Y-68603364D01*
X184746079Y-68603371D01*
X184582218Y-68712860D01*
X184582214Y-68712863D01*
X184442863Y-68852214D01*
X184442860Y-68852218D01*
X184333371Y-69016079D01*
X184333364Y-69016092D01*
X184257950Y-69198160D01*
X184257947Y-69198170D01*
X184219500Y-69391456D01*
X184219500Y-69391459D01*
X184219500Y-69588541D01*
X184219500Y-69588543D01*
X184219499Y-69588543D01*
X184257947Y-69781829D01*
X184257950Y-69781839D01*
X184333364Y-69963907D01*
X184333371Y-69963920D01*
X184442860Y-70127781D01*
X184442863Y-70127785D01*
X184582214Y-70267136D01*
X184582218Y-70267139D01*
X184746079Y-70376628D01*
X184746092Y-70376635D01*
X184877712Y-70431153D01*
X184928165Y-70452051D01*
X184928169Y-70452051D01*
X184928170Y-70452052D01*
X185121456Y-70490500D01*
X185121459Y-70490500D01*
X185318543Y-70490500D01*
X185448582Y-70464632D01*
X185511835Y-70452051D01*
X185693914Y-70376632D01*
X185732399Y-70350917D01*
X185806609Y-70301332D01*
X185873287Y-70280454D01*
X185940667Y-70298938D01*
X185987357Y-70350917D01*
X185999500Y-70404434D01*
X185999500Y-71075565D01*
X185979815Y-71142604D01*
X185927011Y-71188359D01*
X185857853Y-71198303D01*
X185806610Y-71178668D01*
X185693918Y-71103370D01*
X185693907Y-71103364D01*
X185511839Y-71027950D01*
X185511829Y-71027947D01*
X185318543Y-70989500D01*
X185318541Y-70989500D01*
X185121459Y-70989500D01*
X185121457Y-70989500D01*
X184928170Y-71027947D01*
X184928160Y-71027950D01*
X184746092Y-71103364D01*
X184746079Y-71103371D01*
X184582218Y-71212860D01*
X184582214Y-71212863D01*
X184442863Y-71352214D01*
X184442860Y-71352218D01*
X184333371Y-71516079D01*
X184333364Y-71516092D01*
X184257950Y-71698160D01*
X184257947Y-71698170D01*
X184219500Y-71891456D01*
X184219500Y-71950288D01*
X184199815Y-72017327D01*
X184147011Y-72063082D01*
X184077853Y-72073026D01*
X184014297Y-72044001D01*
X183988768Y-72013409D01*
X183968172Y-71978583D01*
X183968165Y-71978574D01*
X183856425Y-71866834D01*
X183856416Y-71866827D01*
X183720390Y-71786382D01*
X183720385Y-71786380D01*
X183568633Y-71742292D01*
X183568620Y-71742290D01*
X183533170Y-71739500D01*
X183533163Y-71739500D01*
X182245098Y-71739500D01*
X182215657Y-71730855D01*
X182185671Y-71724332D01*
X182180655Y-71720577D01*
X182178059Y-71719815D01*
X182157417Y-71703181D01*
X182106819Y-71652583D01*
X182073334Y-71591260D01*
X182070500Y-71564902D01*
X182070500Y-71398100D01*
X182089520Y-71333324D01*
X182089199Y-71333135D01*
X182089947Y-71331868D01*
X182090185Y-71331061D01*
X182091654Y-71328982D01*
X182093167Y-71326422D01*
X182093170Y-71326420D01*
X182173618Y-71190390D01*
X182217709Y-71038627D01*
X182220500Y-71003163D01*
X182220499Y-69626838D01*
X182217709Y-69591373D01*
X182173618Y-69439610D01*
X182093170Y-69303580D01*
X182093168Y-69303578D01*
X182093165Y-69303574D01*
X181981425Y-69191834D01*
X181981416Y-69191827D01*
X181845390Y-69111382D01*
X181845385Y-69111380D01*
X181693633Y-69067292D01*
X181693620Y-69067290D01*
X181658163Y-69064500D01*
X181281849Y-69064500D01*
X181281824Y-69064501D01*
X181246375Y-69067290D01*
X181142564Y-69097450D01*
X181072695Y-69097250D01*
X181020289Y-69066054D01*
X179581590Y-67627356D01*
X179581588Y-67627353D01*
X179462717Y-67508482D01*
X179462712Y-67508478D01*
X179338529Y-67436782D01*
X179338527Y-67436781D01*
X179325785Y-67429424D01*
X179173057Y-67388500D01*
X179014943Y-67388500D01*
X179007347Y-67388500D01*
X179007331Y-67388501D01*
X172354141Y-67388501D01*
X172354125Y-67388500D01*
X172346529Y-67388500D01*
X172188415Y-67388500D01*
X172095862Y-67413300D01*
X172035686Y-67429424D01*
X172022945Y-67436781D01*
X172022943Y-67436782D01*
X171898759Y-67508478D01*
X171898754Y-67508482D01*
X171797756Y-67609481D01*
X171786952Y-67620285D01*
X171786950Y-67620287D01*
X170879288Y-68527950D01*
X169991058Y-69416180D01*
X169964130Y-69430883D01*
X169938312Y-69447476D01*
X169932111Y-69448367D01*
X169929735Y-69449665D01*
X169903377Y-69452499D01*
X169851963Y-69452499D01*
X169784924Y-69432814D01*
X169739169Y-69380010D01*
X169727963Y-69328499D01*
X169727962Y-68342129D01*
X169727961Y-68342123D01*
X169727960Y-68342116D01*
X169721554Y-68282517D01*
X169686799Y-68189335D01*
X169671260Y-68147671D01*
X169671256Y-68147664D01*
X169585010Y-68032455D01*
X169585007Y-68032452D01*
X169469798Y-67946206D01*
X169469791Y-67946202D01*
X169334945Y-67895908D01*
X169334946Y-67895908D01*
X169275346Y-67889501D01*
X169275344Y-67889500D01*
X169275336Y-67889500D01*
X169275328Y-67889500D01*
X169033514Y-67889500D01*
X168966475Y-67869815D01*
X168926126Y-67827499D01*
X168905572Y-67791898D01*
X168905571Y-67791896D01*
X168751399Y-67637725D01*
X168751398Y-67637723D01*
X168622157Y-67508482D01*
X168622152Y-67508478D01*
X168497969Y-67436782D01*
X168497967Y-67436781D01*
X168485225Y-67429424D01*
X168332497Y-67388500D01*
X168174383Y-67388500D01*
X168166787Y-67388500D01*
X168166771Y-67388501D01*
X167305090Y-67388501D01*
X167305086Y-67388500D01*
X167146971Y-67388500D01*
X167109033Y-67398664D01*
X167095811Y-67399315D01*
X167078900Y-67395240D01*
X167057630Y-67395240D01*
X167032477Y-67388500D01*
X167032474Y-67388500D01*
X166874360Y-67388500D01*
X166866764Y-67388500D01*
X166866748Y-67388501D01*
X166083287Y-67388501D01*
X166083271Y-67388500D01*
X166075675Y-67388500D01*
X165917560Y-67388500D01*
X165917558Y-67388500D01*
X165857097Y-67404700D01*
X165792913Y-67404700D01*
X165732452Y-67388500D01*
X165732451Y-67388500D01*
X165574337Y-67388500D01*
X165566741Y-67388500D01*
X165566725Y-67388501D01*
X164712653Y-67388501D01*
X164712637Y-67388500D01*
X164705041Y-67388500D01*
X164546926Y-67388500D01*
X164470562Y-67408962D01*
X164394197Y-67429424D01*
X164394192Y-67429427D01*
X164257273Y-67508476D01*
X164257265Y-67508482D01*
X164044464Y-67721283D01*
X164044460Y-67721288D01*
X164018354Y-67766508D01*
X164018353Y-67766510D01*
X164003696Y-67791896D01*
X163965406Y-67858214D01*
X163962298Y-67869815D01*
X163941830Y-67946204D01*
X163935427Y-67970099D01*
X163899061Y-68029759D01*
X163836214Y-68060288D01*
X163766839Y-68051993D01*
X163741341Y-68037271D01*
X163619695Y-67946206D01*
X163619688Y-67946202D01*
X163484846Y-67895910D01*
X163484845Y-67895909D01*
X163484843Y-67895909D01*
X163425233Y-67889500D01*
X163425223Y-67889500D01*
X163024689Y-67889500D01*
X163024683Y-67889501D01*
X162965077Y-67895908D01*
X162943282Y-67904037D01*
X162873591Y-67909018D01*
X162856623Y-67904036D01*
X162834835Y-67895910D01*
X162834834Y-67895909D01*
X162834832Y-67895909D01*
X162775222Y-67889500D01*
X162775212Y-67889500D01*
X162374678Y-67889500D01*
X162374672Y-67889501D01*
X162315065Y-67895908D01*
X162293275Y-67904036D01*
X162223583Y-67909020D01*
X162206610Y-67904036D01*
X162184823Y-67895910D01*
X162184822Y-67895909D01*
X162184820Y-67895909D01*
X162125210Y-67889500D01*
X162125200Y-67889500D01*
X161724666Y-67889500D01*
X161724660Y-67889501D01*
X161665054Y-67895908D01*
X161643259Y-67904037D01*
X161573568Y-67909018D01*
X161556600Y-67904036D01*
X161534812Y-67895910D01*
X161534811Y-67895909D01*
X161534809Y-67895909D01*
X161475199Y-67889500D01*
X161475189Y-67889500D01*
X161074655Y-67889500D01*
X161074649Y-67889501D01*
X161015042Y-67895908D01*
X160880197Y-67946202D01*
X160880190Y-67946206D01*
X160764981Y-68032452D01*
X160764978Y-68032455D01*
X160678732Y-68147664D01*
X160678728Y-68147671D01*
X160628434Y-68282517D01*
X160622399Y-68338655D01*
X160622027Y-68342123D01*
X160622026Y-68342135D01*
X160622026Y-69599870D01*
X160622027Y-69599876D01*
X160628434Y-69659481D01*
X160628435Y-69659483D01*
X160666608Y-69761831D01*
X160667623Y-69767458D01*
X160669403Y-69770227D01*
X160674426Y-69805162D01*
X160674426Y-69937828D01*
X160654741Y-70004867D01*
X160653528Y-70006719D01*
X160570609Y-70130814D01*
X160570602Y-70130827D01*
X160510264Y-70276498D01*
X160510261Y-70276510D01*
X160479500Y-70431153D01*
X160479500Y-70588846D01*
X160510261Y-70743489D01*
X160510264Y-70743501D01*
X160570602Y-70889172D01*
X160570609Y-70889185D01*
X160658210Y-71020288D01*
X160658213Y-71020292D01*
X160769707Y-71131786D01*
X160769711Y-71131789D01*
X160900814Y-71219390D01*
X160900827Y-71219397D01*
X161046498Y-71279735D01*
X161046503Y-71279737D01*
X161201153Y-71310499D01*
X161201156Y-71310500D01*
X161201158Y-71310500D01*
X161358844Y-71310500D01*
X161358845Y-71310499D01*
X161513497Y-71279737D01*
X161659179Y-71219394D01*
X161790289Y-71131789D01*
X161901789Y-71020289D01*
X161914857Y-71000731D01*
X161968465Y-70955925D01*
X162037790Y-70947215D01*
X162100818Y-70977367D01*
X162105641Y-70981938D01*
X167178077Y-76054374D01*
X167178087Y-76054385D01*
X167182417Y-76058715D01*
X167182418Y-76058716D01*
X167294222Y-76170520D01*
X167371708Y-76215256D01*
X167431153Y-76249577D01*
X167583881Y-76290501D01*
X167583884Y-76290501D01*
X167749591Y-76290501D01*
X167749607Y-76290500D01*
X171670500Y-76290500D01*
X171737539Y-76310185D01*
X171783294Y-76362989D01*
X171794500Y-76414500D01*
X171794500Y-76821613D01*
X171800913Y-76892192D01*
X171800913Y-76892194D01*
X171800914Y-76892196D01*
X171851522Y-77054606D01*
X171931933Y-77187622D01*
X171939530Y-77200188D01*
X172059811Y-77320469D01*
X172059813Y-77320470D01*
X172059815Y-77320472D01*
X172205394Y-77408478D01*
X172367804Y-77459086D01*
X172438384Y-77465500D01*
X172438387Y-77465500D01*
X172951613Y-77465500D01*
X172951616Y-77465500D01*
X173022196Y-77459086D01*
X173184606Y-77408478D01*
X173330185Y-77320472D01*
X173449444Y-77201212D01*
X173510763Y-77167730D01*
X173580455Y-77172714D01*
X173600236Y-77182160D01*
X173619610Y-77193618D01*
X173771373Y-77237709D01*
X173806837Y-77240500D01*
X174190393Y-77240499D01*
X174237845Y-77249938D01*
X174261498Y-77259735D01*
X174261503Y-77259737D01*
X174384099Y-77284123D01*
X174416153Y-77290499D01*
X174416156Y-77290500D01*
X174416158Y-77290500D01*
X174573844Y-77290500D01*
X174573845Y-77290499D01*
X174728497Y-77259737D01*
X174752154Y-77249937D01*
X174799606Y-77240499D01*
X175183150Y-77240499D01*
X175183162Y-77240499D01*
X175218627Y-77237709D01*
X175370390Y-77193618D01*
X175435351Y-77155199D01*
X175454641Y-77150305D01*
X175472110Y-77140767D01*
X175487810Y-77141889D01*
X175503071Y-77138018D01*
X175521949Y-77144331D01*
X175541802Y-77145751D01*
X175554403Y-77155183D01*
X175569334Y-77160177D01*
X175581801Y-77175693D01*
X175597736Y-77187622D01*
X175603237Y-77202372D01*
X175613097Y-77214643D01*
X175615196Y-77234434D01*
X175622153Y-77253086D01*
X175618806Y-77268469D01*
X175620467Y-77284123D01*
X175611533Y-77301907D01*
X175607302Y-77321359D01*
X175590461Y-77343856D01*
X175589104Y-77346558D01*
X175586151Y-77349614D01*
X175501285Y-77434480D01*
X175501284Y-77434481D01*
X175501283Y-77434482D01*
X175456182Y-77479581D01*
X175431626Y-77498629D01*
X175358577Y-77541831D01*
X175358577Y-77541832D01*
X175246834Y-77653574D01*
X175246827Y-77653583D01*
X175166382Y-77789609D01*
X175166380Y-77789614D01*
X175122292Y-77941366D01*
X175122290Y-77941379D01*
X175119500Y-77976829D01*
X175119500Y-79269902D01*
X175099815Y-79336941D01*
X175083181Y-79357583D01*
X174557583Y-79883181D01*
X174496260Y-79916666D01*
X174469902Y-79919500D01*
X171367362Y-79919500D01*
X171302265Y-79901038D01*
X171248705Y-79868001D01*
X171248699Y-79867998D01*
X171248697Y-79867997D01*
X171206647Y-79854063D01*
X171087709Y-79814651D01*
X170988346Y-79804500D01*
X170391662Y-79804500D01*
X170391644Y-79804501D01*
X170292292Y-79814650D01*
X170292289Y-79814651D01*
X170131305Y-79867996D01*
X170131294Y-79868001D01*
X170077735Y-79901038D01*
X170061177Y-79905733D01*
X170047573Y-79914477D01*
X170012638Y-79919500D01*
X169897362Y-79919500D01*
X169832265Y-79901038D01*
X169778705Y-79868001D01*
X169778699Y-79867998D01*
X169778697Y-79867997D01*
X169736647Y-79854063D01*
X169617709Y-79814651D01*
X169518352Y-79804500D01*
X169518345Y-79804500D01*
X169230782Y-79804500D01*
X169163743Y-79784815D01*
X169143101Y-79768181D01*
X168746818Y-79371898D01*
X168713333Y-79310575D01*
X168710499Y-79284217D01*
X168710499Y-77952129D01*
X168710498Y-77952123D01*
X168710490Y-77952051D01*
X168704091Y-77892517D01*
X168698166Y-77876632D01*
X168653797Y-77757671D01*
X168653793Y-77757664D01*
X168567547Y-77642455D01*
X168567544Y-77642452D01*
X168452335Y-77556206D01*
X168452328Y-77556202D01*
X168317482Y-77505908D01*
X168317483Y-77505908D01*
X168257883Y-77499501D01*
X168257881Y-77499500D01*
X168257873Y-77499500D01*
X168257864Y-77499500D01*
X166962129Y-77499500D01*
X166962123Y-77499501D01*
X166902516Y-77505908D01*
X166767671Y-77556202D01*
X166767669Y-77556203D01*
X166744969Y-77573197D01*
X166679504Y-77597613D01*
X166611232Y-77582761D01*
X166582978Y-77561610D01*
X164843421Y-75822052D01*
X164843418Y-75822049D01*
X164764108Y-75769057D01*
X164720495Y-75739916D01*
X164720492Y-75739914D01*
X164720491Y-75739914D01*
X164583917Y-75683343D01*
X164583907Y-75683340D01*
X164438920Y-75654500D01*
X164438918Y-75654500D01*
X163761850Y-75654500D01*
X163694811Y-75634815D01*
X163649056Y-75582011D01*
X163639112Y-75512853D01*
X163647289Y-75483048D01*
X163694735Y-75368501D01*
X163694737Y-75368497D01*
X163725500Y-75213842D01*
X163725500Y-75056158D01*
X163725500Y-75056155D01*
X163725499Y-75056153D01*
X163694738Y-74901510D01*
X163694737Y-74901503D01*
X163694735Y-74901498D01*
X163634397Y-74755827D01*
X163634390Y-74755814D01*
X163546789Y-74624711D01*
X163546786Y-74624707D01*
X163435292Y-74513213D01*
X163435288Y-74513210D01*
X163304185Y-74425609D01*
X163304172Y-74425602D01*
X163158501Y-74365264D01*
X163158489Y-74365261D01*
X163003845Y-74334500D01*
X163003842Y-74334500D01*
X162846158Y-74334500D01*
X162846155Y-74334500D01*
X162691510Y-74365261D01*
X162691498Y-74365264D01*
X162545827Y-74425602D01*
X162545814Y-74425609D01*
X162414711Y-74513210D01*
X162414707Y-74513213D01*
X162303213Y-74624707D01*
X162303210Y-74624711D01*
X162215609Y-74755814D01*
X162215602Y-74755827D01*
X162155264Y-74901498D01*
X162155261Y-74901510D01*
X162124500Y-75056153D01*
X162124500Y-75213846D01*
X162155261Y-75368489D01*
X162155264Y-75368501D01*
X162202711Y-75483048D01*
X162210180Y-75552517D01*
X162178905Y-75614996D01*
X162118816Y-75650648D01*
X162088150Y-75654500D01*
X161228838Y-75654500D01*
X161083850Y-75683340D01*
X161083840Y-75683343D01*
X160947266Y-75739914D01*
X160903650Y-75769057D01*
X160824339Y-75822049D01*
X160824336Y-75822052D01*
X160345072Y-76301317D01*
X160283749Y-76334802D01*
X160214057Y-76329818D01*
X160158124Y-76287946D01*
X160133707Y-76222482D01*
X160139684Y-76174635D01*
X160189999Y-76022797D01*
X160200500Y-75920009D01*
X160200499Y-74519992D01*
X160193901Y-74455406D01*
X160189999Y-74417203D01*
X160189998Y-74417200D01*
X160155675Y-74313620D01*
X160134814Y-74250666D01*
X160042712Y-74101344D01*
X159918656Y-73977288D01*
X159796349Y-73901849D01*
X159769336Y-73885187D01*
X159769331Y-73885185D01*
X159712557Y-73866372D01*
X159602797Y-73830001D01*
X159602795Y-73830000D01*
X159561896Y-73825822D01*
X159497205Y-73799425D01*
X159457054Y-73742244D01*
X159450500Y-73702464D01*
X159450500Y-67931456D01*
X159425670Y-67806632D01*
X159425670Y-67806631D01*
X159412051Y-67738164D01*
X159387997Y-67680092D01*
X159336632Y-67556086D01*
X159336631Y-67556085D01*
X159336628Y-67556079D01*
X159227139Y-67392218D01*
X159227136Y-67392214D01*
X159084686Y-67249764D01*
X159084655Y-67249735D01*
X158306819Y-66471899D01*
X158273334Y-66410576D01*
X158270500Y-66384218D01*
X158270500Y-65080097D01*
X158290185Y-65013058D01*
X158306819Y-64992416D01*
X160515415Y-62783820D01*
X160576738Y-62750335D01*
X160603096Y-62747501D01*
X161148037Y-62747501D01*
X161215076Y-62767186D01*
X161260831Y-62819990D01*
X161272037Y-62871501D01*
X161272037Y-63857870D01*
X161272038Y-63857876D01*
X161278445Y-63917483D01*
X161328739Y-64052328D01*
X161328743Y-64052335D01*
X161414989Y-64167544D01*
X161414992Y-64167547D01*
X161530202Y-64253794D01*
X161530211Y-64253799D01*
X161530217Y-64253805D01*
X161537306Y-64259112D01*
X161536543Y-64260130D01*
X161579617Y-64303203D01*
X161594470Y-64371476D01*
X161585348Y-64410082D01*
X161570264Y-64446498D01*
X161570261Y-64446510D01*
X161539500Y-64601153D01*
X161539500Y-64758846D01*
X161570261Y-64913489D01*
X161570264Y-64913501D01*
X161630602Y-65059172D01*
X161630609Y-65059185D01*
X161718210Y-65190288D01*
X161718213Y-65190292D01*
X161829707Y-65301786D01*
X161829711Y-65301789D01*
X161960814Y-65389390D01*
X161960827Y-65389397D01*
X162022652Y-65415005D01*
X162106503Y-65449737D01*
X162110993Y-65450630D01*
X162172905Y-65483009D01*
X162207483Y-65543722D01*
X162209547Y-65589893D01*
X162204500Y-65624996D01*
X162204500Y-66575002D01*
X162209644Y-66646940D01*
X162250182Y-66784994D01*
X162327967Y-66906030D01*
X162327971Y-66906034D01*
X162436700Y-67000249D01*
X162436706Y-67000254D01*
X162477174Y-67018735D01*
X162567580Y-67060023D01*
X162567583Y-67060023D01*
X162567584Y-67060024D01*
X162710000Y-67080500D01*
X162710003Y-67080500D01*
X162910000Y-67080500D01*
X162981940Y-67075355D01*
X163119992Y-67034819D01*
X163241032Y-66957031D01*
X163335254Y-66848294D01*
X163395024Y-66717416D01*
X163415500Y-66575000D01*
X163415500Y-65625000D01*
X163410355Y-65553060D01*
X163369819Y-65415008D01*
X163345578Y-65377289D01*
X163292032Y-65293969D01*
X163292028Y-65293965D01*
X163183299Y-65199750D01*
X163183297Y-65199748D01*
X163183294Y-65199746D01*
X163130567Y-65175666D01*
X163126394Y-65172050D01*
X163121018Y-65170796D01*
X163100279Y-65149421D01*
X163077765Y-65129913D01*
X163076209Y-65124613D01*
X163072364Y-65120651D01*
X163066471Y-65091452D01*
X163058080Y-65062873D01*
X163059346Y-65056143D01*
X163058543Y-65052162D01*
X163065307Y-65024473D01*
X163066565Y-65017791D01*
X163067015Y-65016635D01*
X163109737Y-64913497D01*
X163112303Y-64900592D01*
X163116275Y-64890417D01*
X163131225Y-64871061D01*
X163142559Y-64849396D01*
X163152201Y-64843905D01*
X163158986Y-64835122D01*
X163182023Y-64826923D01*
X163203275Y-64814822D01*
X163222236Y-64812612D01*
X163224811Y-64811696D01*
X163226572Y-64812107D01*
X163231790Y-64811499D01*
X164266703Y-64811499D01*
X164266719Y-64811500D01*
X164274315Y-64811500D01*
X164432426Y-64811500D01*
X164432429Y-64811500D01*
X164585157Y-64770576D01*
X164635276Y-64741638D01*
X164722088Y-64691519D01*
X164833892Y-64579715D01*
X164833892Y-64579714D01*
X164851332Y-64562274D01*
X164851334Y-64562271D01*
X165005500Y-64408107D01*
X165005502Y-64408105D01*
X165005503Y-64408104D01*
X165026058Y-64372501D01*
X165076624Y-64324284D01*
X165133446Y-64310499D01*
X165375265Y-64310499D01*
X165375266Y-64310499D01*
X165434877Y-64304091D01*
X165456663Y-64295964D01*
X165526353Y-64290978D01*
X165543330Y-64295962D01*
X165565123Y-64304091D01*
X165624733Y-64310500D01*
X165866552Y-64310499D01*
X165933592Y-64330183D01*
X165973940Y-64372499D01*
X165994494Y-64408100D01*
X165994498Y-64408105D01*
X166123733Y-64537340D01*
X166123737Y-64537344D01*
X166277912Y-64691519D01*
X166277914Y-64691520D01*
X166277915Y-64691521D01*
X166277918Y-64691523D01*
X166394520Y-64758842D01*
X166414844Y-64770576D01*
X166567571Y-64811500D01*
X166567573Y-64811500D01*
X166733282Y-64811500D01*
X166733298Y-64811499D01*
X167726275Y-64811499D01*
X167750844Y-64818713D01*
X167776239Y-64822011D01*
X167783812Y-64828393D01*
X167793314Y-64831184D01*
X167810080Y-64850533D01*
X167829664Y-64867039D01*
X167834446Y-64878653D01*
X167839069Y-64883988D01*
X167844763Y-64898940D01*
X167846647Y-64905047D01*
X167860263Y-64973497D01*
X167889679Y-65044514D01*
X167891389Y-65050056D01*
X167891790Y-65079425D01*
X167894931Y-65108632D01*
X167892263Y-65113960D01*
X167892345Y-65119919D01*
X167876801Y-65144848D01*
X167863655Y-65171111D01*
X167856914Y-65176744D01*
X167855378Y-65179209D01*
X167852120Y-65180750D01*
X167839941Y-65190930D01*
X167758970Y-65242967D01*
X167758965Y-65242971D01*
X167664750Y-65351700D01*
X167664744Y-65351709D01*
X167604976Y-65482580D01*
X167604975Y-65482585D01*
X167584500Y-65624999D01*
X167584500Y-66575002D01*
X167589644Y-66646940D01*
X167630182Y-66784994D01*
X167707967Y-66906030D01*
X167707971Y-66906034D01*
X167816700Y-67000249D01*
X167816706Y-67000254D01*
X167857174Y-67018735D01*
X167947580Y-67060023D01*
X167947583Y-67060023D01*
X167947584Y-67060024D01*
X168090000Y-67080500D01*
X168090003Y-67080500D01*
X168290000Y-67080500D01*
X168361940Y-67075355D01*
X168499992Y-67034819D01*
X168621032Y-66957031D01*
X168715254Y-66848294D01*
X168775024Y-66717416D01*
X168795500Y-66575000D01*
X168795500Y-65625000D01*
X168795500Y-65624996D01*
X168795500Y-65622786D01*
X168796135Y-65622786D01*
X168812769Y-65557540D01*
X168863894Y-65509916D01*
X168871941Y-65506239D01*
X169009179Y-65449394D01*
X169140289Y-65361789D01*
X169251789Y-65250289D01*
X169339394Y-65119179D01*
X169346489Y-65102049D01*
X169359030Y-65086485D01*
X169367336Y-65068299D01*
X169380505Y-65059835D01*
X169390327Y-65047647D01*
X169409294Y-65041333D01*
X169426114Y-65030524D01*
X169453671Y-65026561D01*
X169456621Y-65025580D01*
X169461049Y-65025501D01*
X169539733Y-65025501D01*
X169539736Y-65025500D01*
X169547344Y-65025500D01*
X170539996Y-65025500D01*
X170607035Y-65045185D01*
X170645534Y-65084403D01*
X170649882Y-65091452D01*
X170657031Y-65103043D01*
X170776955Y-65222967D01*
X170776959Y-65222970D01*
X170921294Y-65311998D01*
X170921297Y-65311999D01*
X170921303Y-65312003D01*
X171082292Y-65365349D01*
X171181655Y-65375500D01*
X171778344Y-65375499D01*
X171778352Y-65375498D01*
X171778355Y-65375498D01*
X171832760Y-65369940D01*
X171877708Y-65365349D01*
X172038697Y-65312003D01*
X172183044Y-65222968D01*
X172302968Y-65103044D01*
X172392003Y-64958697D01*
X172445349Y-64797708D01*
X172455500Y-64698345D01*
X172455499Y-64151656D01*
X172445349Y-64052292D01*
X172392003Y-63891303D01*
X172391999Y-63891297D01*
X172391998Y-63891294D01*
X172302970Y-63746959D01*
X172302967Y-63746955D01*
X172293693Y-63737681D01*
X172260208Y-63676358D01*
X172265192Y-63606666D01*
X172293693Y-63562319D01*
X172302968Y-63553044D01*
X172392003Y-63408697D01*
X172445349Y-63247708D01*
X172455500Y-63148345D01*
X172455499Y-62601656D01*
X172445349Y-62502292D01*
X172392003Y-62341303D01*
X172391999Y-62341297D01*
X172391998Y-62341294D01*
X172299177Y-62190809D01*
X172301612Y-62189306D01*
X172280353Y-62136644D01*
X172293378Y-62067999D01*
X172341448Y-62017293D01*
X172403757Y-62000501D01*
X172588543Y-62000501D01*
X172588544Y-62000500D01*
X172781836Y-61962052D01*
X172963915Y-61886632D01*
X173127782Y-61777140D01*
X173267140Y-61637782D01*
X173376632Y-61473915D01*
X173452052Y-61291836D01*
X173490501Y-61098541D01*
X173490501Y-60901460D01*
X173490501Y-60896350D01*
X173490500Y-60896324D01*
X173490500Y-60374675D01*
X173490501Y-60374654D01*
X173490501Y-60171457D01*
X173490500Y-60171455D01*
X173452053Y-59978172D01*
X173452052Y-59978165D01*
X173376632Y-59796086D01*
X173376631Y-59796085D01*
X173376628Y-59796079D01*
X173267141Y-59632220D01*
X173244353Y-59609432D01*
X173195344Y-59560423D01*
X173127782Y-59492861D01*
X173113486Y-59478565D01*
X173113485Y-59478564D01*
X173113484Y-59478563D01*
X172949624Y-59369075D01*
X172949611Y-59369068D01*
X172798580Y-59306510D01*
X172798577Y-59306509D01*
X172789615Y-59302797D01*
X172767540Y-59293653D01*
X172642676Y-59268816D01*
X172640222Y-59268327D01*
X172640206Y-59268324D01*
X172574247Y-59255204D01*
X172574245Y-59255204D01*
X172544500Y-59255204D01*
X172477461Y-59235519D01*
X172431706Y-59182715D01*
X172420500Y-59131204D01*
X172420500Y-58837857D01*
X177699500Y-58837857D01*
X177699500Y-59162143D01*
X177706727Y-59235519D01*
X177731284Y-59484857D01*
X177731287Y-59484874D01*
X177794545Y-59802902D01*
X177794548Y-59802913D01*
X177888686Y-60113247D01*
X178012786Y-60412849D01*
X178012788Y-60412854D01*
X178165646Y-60698830D01*
X178165657Y-60698848D01*
X178345811Y-60968467D01*
X178345821Y-60968481D01*
X178551546Y-61219158D01*
X178780841Y-61448453D01*
X178780846Y-61448457D01*
X178780847Y-61448458D01*
X179031524Y-61654183D01*
X179301158Y-61834347D01*
X179301167Y-61834352D01*
X179301169Y-61834353D01*
X179587145Y-61987211D01*
X179587147Y-61987211D01*
X179587153Y-61987215D01*
X179886754Y-62111314D01*
X180197077Y-62205449D01*
X180197083Y-62205450D01*
X180197086Y-62205451D01*
X180197097Y-62205454D01*
X180396528Y-62245122D01*
X180515132Y-62268714D01*
X180837857Y-62300500D01*
X180837860Y-62300500D01*
X181162140Y-62300500D01*
X181162143Y-62300500D01*
X181484868Y-62268714D01*
X181642295Y-62237399D01*
X181802902Y-62205454D01*
X181802913Y-62205451D01*
X181802913Y-62205450D01*
X181802923Y-62205449D01*
X182113246Y-62111314D01*
X182412847Y-61987215D01*
X182698842Y-61834347D01*
X182968476Y-61654183D01*
X183219153Y-61448458D01*
X183448458Y-61219153D01*
X183654183Y-60968476D01*
X183834347Y-60698842D01*
X183987215Y-60412847D01*
X184111314Y-60113246D01*
X184205449Y-59802923D01*
X184205451Y-59802913D01*
X184205454Y-59802902D01*
X184239404Y-59632219D01*
X184268714Y-59484868D01*
X184300500Y-59162143D01*
X184300500Y-58837857D01*
X184268714Y-58515132D01*
X184230559Y-58323313D01*
X184205454Y-58197097D01*
X184205451Y-58197086D01*
X184205450Y-58197083D01*
X184205449Y-58197077D01*
X184111314Y-57886754D01*
X183987215Y-57587153D01*
X183928531Y-57477364D01*
X183834353Y-57301169D01*
X183834352Y-57301167D01*
X183834347Y-57301158D01*
X183654183Y-57031524D01*
X183448458Y-56780847D01*
X183448457Y-56780846D01*
X183448453Y-56780841D01*
X183219158Y-56551546D01*
X182968481Y-56345821D01*
X182968480Y-56345820D01*
X182968476Y-56345817D01*
X182698842Y-56165653D01*
X182698837Y-56165650D01*
X182698830Y-56165646D01*
X182412854Y-56012788D01*
X182412849Y-56012786D01*
X182113247Y-55888686D01*
X181802913Y-55794548D01*
X181802902Y-55794545D01*
X181484874Y-55731287D01*
X181484857Y-55731284D01*
X181240812Y-55707248D01*
X181162143Y-55699500D01*
X180837857Y-55699500D01*
X180765099Y-55706666D01*
X180515142Y-55731284D01*
X180515125Y-55731287D01*
X180197097Y-55794545D01*
X180197086Y-55794548D01*
X179886752Y-55888686D01*
X179587150Y-56012786D01*
X179587145Y-56012788D01*
X179301169Y-56165646D01*
X179301151Y-56165657D01*
X179031532Y-56345811D01*
X179031518Y-56345821D01*
X178780841Y-56551546D01*
X178551546Y-56780841D01*
X178345821Y-57031518D01*
X178345811Y-57031532D01*
X178165657Y-57301151D01*
X178165646Y-57301169D01*
X178012788Y-57587145D01*
X178012786Y-57587150D01*
X177888686Y-57886752D01*
X177794548Y-58197086D01*
X177794545Y-58197097D01*
X177731287Y-58515125D01*
X177731284Y-58515142D01*
X177708372Y-58747780D01*
X177699500Y-58837857D01*
X172420500Y-58837857D01*
X172420500Y-57199997D01*
X172420499Y-57199984D01*
X172409999Y-57097204D01*
X172409999Y-57097203D01*
X172354814Y-56930666D01*
X172347468Y-56918757D01*
X172262713Y-56781348D01*
X172262710Y-56781344D01*
X172138655Y-56657289D01*
X172138651Y-56657286D01*
X171989337Y-56565187D01*
X171989335Y-56565186D01*
X171878907Y-56528594D01*
X171822797Y-56510001D01*
X171822795Y-56510000D01*
X171720015Y-56499500D01*
X171720008Y-56499500D01*
X169719992Y-56499500D01*
X169719984Y-56499500D01*
X169617204Y-56510000D01*
X169617203Y-56510001D01*
X169450664Y-56565186D01*
X169450662Y-56565187D01*
X169301348Y-56657286D01*
X169301344Y-56657289D01*
X169177289Y-56781344D01*
X169177286Y-56781348D01*
X169085187Y-56930662D01*
X169085186Y-56930664D01*
X169030001Y-57097203D01*
X169030000Y-57097204D01*
X169019500Y-57199984D01*
X169019500Y-57477364D01*
X168999815Y-57544403D01*
X168947011Y-57590158D01*
X168877853Y-57600102D01*
X168814297Y-57571077D01*
X168780939Y-57524817D01*
X168748406Y-57446277D01*
X168748405Y-57446274D01*
X168636948Y-57253226D01*
X168501247Y-57076376D01*
X168501242Y-57076370D01*
X168343629Y-56918757D01*
X168343622Y-56918751D01*
X168166782Y-56783058D01*
X168166780Y-56783057D01*
X168166774Y-56783052D01*
X167973726Y-56671595D01*
X167973722Y-56671593D01*
X167767790Y-56586293D01*
X167767783Y-56586291D01*
X167767781Y-56586290D01*
X167552463Y-56528596D01*
X167552457Y-56528595D01*
X167552452Y-56528594D01*
X167331466Y-56499501D01*
X167331463Y-56499500D01*
X167331457Y-56499500D01*
X167108543Y-56499500D01*
X167108537Y-56499500D01*
X167108533Y-56499501D01*
X166887547Y-56528594D01*
X166887540Y-56528595D01*
X166887537Y-56528596D01*
X166801901Y-56551542D01*
X166672219Y-56586290D01*
X166672209Y-56586293D01*
X166466277Y-56671593D01*
X166466273Y-56671595D01*
X166273226Y-56783052D01*
X166273217Y-56783058D01*
X166096377Y-56918751D01*
X166096370Y-56918757D01*
X165938757Y-57076370D01*
X165938751Y-57076377D01*
X165803058Y-57253217D01*
X165803052Y-57253226D01*
X165691595Y-57446273D01*
X165691593Y-57446277D01*
X165606293Y-57652209D01*
X165606291Y-57652216D01*
X165606290Y-57652219D01*
X165589774Y-57713857D01*
X165553410Y-57773516D01*
X165490563Y-57804045D01*
X165421187Y-57795750D01*
X165367309Y-57751265D01*
X165350226Y-57713858D01*
X165333710Y-57652219D01*
X165312122Y-57600102D01*
X165248406Y-57446277D01*
X165248405Y-57446274D01*
X165136948Y-57253226D01*
X165001247Y-57076376D01*
X165001242Y-57076370D01*
X164843629Y-56918757D01*
X164843622Y-56918751D01*
X164666782Y-56783058D01*
X164666780Y-56783057D01*
X164666774Y-56783052D01*
X164473726Y-56671595D01*
X164473722Y-56671593D01*
X164267790Y-56586293D01*
X164267783Y-56586291D01*
X164267781Y-56586290D01*
X164052463Y-56528596D01*
X164052457Y-56528595D01*
X164052452Y-56528594D01*
X163831466Y-56499501D01*
X163831463Y-56499500D01*
X163831457Y-56499500D01*
X163608543Y-56499500D01*
X163608537Y-56499500D01*
X163608533Y-56499501D01*
X163387547Y-56528594D01*
X163387540Y-56528595D01*
X163387537Y-56528596D01*
X163301901Y-56551542D01*
X163172219Y-56586290D01*
X163172209Y-56586293D01*
X162966277Y-56671593D01*
X162966273Y-56671595D01*
X162773226Y-56783052D01*
X162773217Y-56783058D01*
X162596377Y-56918751D01*
X162596370Y-56918757D01*
X162438757Y-57076370D01*
X162438751Y-57076377D01*
X162303058Y-57253217D01*
X162303052Y-57253226D01*
X162191595Y-57446273D01*
X162191593Y-57446277D01*
X162106293Y-57652209D01*
X162106291Y-57652216D01*
X162106290Y-57652219D01*
X162089774Y-57713857D01*
X162053410Y-57773516D01*
X161990563Y-57804045D01*
X161921187Y-57795750D01*
X161867309Y-57751265D01*
X161850226Y-57713858D01*
X161833710Y-57652219D01*
X161812122Y-57600102D01*
X161748406Y-57446277D01*
X161748405Y-57446274D01*
X161636948Y-57253226D01*
X161501247Y-57076376D01*
X161501242Y-57076370D01*
X161343629Y-56918757D01*
X161343622Y-56918751D01*
X161166782Y-56783058D01*
X161166780Y-56783057D01*
X161166774Y-56783052D01*
X160973726Y-56671595D01*
X160973722Y-56671593D01*
X160767790Y-56586293D01*
X160767783Y-56586291D01*
X160767781Y-56586290D01*
X160552463Y-56528596D01*
X160552457Y-56528595D01*
X160552452Y-56528594D01*
X160331466Y-56499501D01*
X160331463Y-56499500D01*
X160331457Y-56499500D01*
X160108543Y-56499500D01*
X160108537Y-56499500D01*
X160108533Y-56499501D01*
X159887547Y-56528594D01*
X159887540Y-56528595D01*
X159887537Y-56528596D01*
X159801901Y-56551542D01*
X159672219Y-56586290D01*
X159672209Y-56586293D01*
X159466277Y-56671593D01*
X159466273Y-56671595D01*
X159273226Y-56783052D01*
X159273217Y-56783058D01*
X159096377Y-56918751D01*
X159096370Y-56918757D01*
X158938757Y-57076370D01*
X158938751Y-57076377D01*
X158803058Y-57253217D01*
X158803052Y-57253226D01*
X158691595Y-57446273D01*
X158691593Y-57446277D01*
X158606293Y-57652209D01*
X158606291Y-57652216D01*
X158606290Y-57652219D01*
X158559068Y-57828457D01*
X158548597Y-57867534D01*
X158548594Y-57867547D01*
X158519501Y-58088533D01*
X158519500Y-58088549D01*
X158519500Y-58311450D01*
X158519501Y-58311466D01*
X158548594Y-58532452D01*
X158548595Y-58532457D01*
X158548596Y-58532463D01*
X158563248Y-58587145D01*
X158606290Y-58747780D01*
X158606293Y-58747790D01*
X158683469Y-58934108D01*
X158691595Y-58953726D01*
X158803052Y-59146774D01*
X158803057Y-59146780D01*
X158803058Y-59146782D01*
X158920636Y-59300014D01*
X158945830Y-59365183D01*
X158931791Y-59433628D01*
X158882977Y-59483618D01*
X158822260Y-59499500D01*
X154901903Y-59499500D01*
X154668631Y-59536446D01*
X154444003Y-59609433D01*
X154233565Y-59716657D01*
X154042488Y-59855484D01*
X152990033Y-60907939D01*
X152928710Y-60941424D01*
X152859018Y-60936440D01*
X152803085Y-60894568D01*
X152778668Y-60829104D01*
X152793520Y-60760831D01*
X152799235Y-60751390D01*
X152834347Y-60698842D01*
X152987215Y-60412847D01*
X153111314Y-60113246D01*
X153205449Y-59802923D01*
X153205451Y-59802913D01*
X153205454Y-59802902D01*
X153239404Y-59632219D01*
X153268714Y-59484868D01*
X153300500Y-59162143D01*
X153300500Y-58837857D01*
X153268714Y-58515132D01*
X153230559Y-58323313D01*
X153205454Y-58197097D01*
X153205451Y-58197086D01*
X153205450Y-58197083D01*
X153205449Y-58197077D01*
X153111314Y-57886754D01*
X152987215Y-57587153D01*
X152928531Y-57477364D01*
X152834353Y-57301169D01*
X152834352Y-57301167D01*
X152834347Y-57301158D01*
X152654183Y-57031524D01*
X152448458Y-56780847D01*
X152448457Y-56780846D01*
X152448453Y-56780841D01*
X152219158Y-56551546D01*
X151968481Y-56345821D01*
X151968480Y-56345820D01*
X151968476Y-56345817D01*
X151698842Y-56165653D01*
X151698837Y-56165650D01*
X151698830Y-56165646D01*
X151412854Y-56012788D01*
X151412849Y-56012786D01*
X151113247Y-55888686D01*
X150802913Y-55794548D01*
X150802902Y-55794545D01*
X150484874Y-55731287D01*
X150484857Y-55731284D01*
X150240812Y-55707248D01*
X150162143Y-55699500D01*
X149837857Y-55699500D01*
X149765099Y-55706666D01*
X149515142Y-55731284D01*
X149515125Y-55731287D01*
X149197097Y-55794545D01*
X149197086Y-55794548D01*
X148886752Y-55888686D01*
X148587150Y-56012786D01*
X148587145Y-56012788D01*
X148301169Y-56165646D01*
X148301151Y-56165657D01*
X148031532Y-56345811D01*
X148031518Y-56345821D01*
X147780841Y-56551546D01*
X147551546Y-56780841D01*
X147345821Y-57031518D01*
X147345811Y-57031532D01*
X147165657Y-57301151D01*
X147165646Y-57301169D01*
X147012788Y-57587145D01*
X147012786Y-57587150D01*
X146888686Y-57886752D01*
X146794548Y-58197086D01*
X146794545Y-58197097D01*
X146731287Y-58515125D01*
X146731284Y-58515142D01*
X146708372Y-58747780D01*
X146699500Y-58837857D01*
X146699500Y-59162143D01*
X146706727Y-59235519D01*
X146731284Y-59484857D01*
X146731287Y-59484874D01*
X146794545Y-59802902D01*
X146794548Y-59802913D01*
X146888686Y-60113247D01*
X147012786Y-60412849D01*
X147012788Y-60412854D01*
X147165646Y-60698830D01*
X147165657Y-60698848D01*
X147345811Y-60968467D01*
X147345821Y-60968481D01*
X147551546Y-61219158D01*
X147780841Y-61448453D01*
X147780846Y-61448457D01*
X147780847Y-61448458D01*
X148031524Y-61654183D01*
X148301158Y-61834347D01*
X148301167Y-61834352D01*
X148301169Y-61834353D01*
X148587145Y-61987211D01*
X148587147Y-61987211D01*
X148587153Y-61987215D01*
X148886754Y-62111314D01*
X149197077Y-62205449D01*
X149197083Y-62205450D01*
X149197086Y-62205451D01*
X149197097Y-62205454D01*
X149396528Y-62245122D01*
X149515132Y-62268714D01*
X149837857Y-62300500D01*
X149837860Y-62300500D01*
X150162140Y-62300500D01*
X150162143Y-62300500D01*
X150484868Y-62268714D01*
X150642295Y-62237399D01*
X150802902Y-62205454D01*
X150802913Y-62205451D01*
X150802913Y-62205450D01*
X150802923Y-62205449D01*
X151113246Y-62111314D01*
X151412847Y-61987215D01*
X151698842Y-61834347D01*
X151751370Y-61799248D01*
X151818044Y-61778372D01*
X151885424Y-61796856D01*
X151932114Y-61848834D01*
X151943291Y-61917804D01*
X151915406Y-61981868D01*
X151907939Y-61990033D01*
X150272490Y-63625483D01*
X149735485Y-64162487D01*
X149735484Y-64162488D01*
X149596655Y-64353568D01*
X149532593Y-64479296D01*
X149509790Y-64510681D01*
X148837292Y-65183181D01*
X148775969Y-65216666D01*
X148749611Y-65219500D01*
X148222484Y-65219500D01*
X148119704Y-65230000D01*
X148119703Y-65230001D01*
X147953164Y-65285186D01*
X147953162Y-65285187D01*
X147803848Y-65377286D01*
X147803844Y-65377289D01*
X147679789Y-65501344D01*
X147679786Y-65501348D01*
X147587687Y-65650662D01*
X147587686Y-65650664D01*
X147532501Y-65817203D01*
X147532500Y-65817204D01*
X147522000Y-65919984D01*
X147522000Y-67920015D01*
X147532500Y-68022795D01*
X147532501Y-68022797D01*
X147537297Y-68037271D01*
X147587686Y-68189335D01*
X147587687Y-68189337D01*
X147679786Y-68338651D01*
X147679789Y-68338655D01*
X147803844Y-68462710D01*
X147803848Y-68462713D01*
X147953162Y-68554812D01*
X147953164Y-68554813D01*
X147953166Y-68554814D01*
X148119703Y-68609999D01*
X148222492Y-68620500D01*
X150029633Y-68620500D01*
X150096672Y-68640185D01*
X150098524Y-68641398D01*
X150226079Y-68726628D01*
X150226092Y-68726635D01*
X150309330Y-68761113D01*
X150309331Y-68761113D01*
X150408164Y-68802051D01*
X150601454Y-68840499D01*
X150601457Y-68840500D01*
X150601459Y-68840500D01*
X150798540Y-68840500D01*
X157074218Y-68840500D01*
X157141257Y-68860185D01*
X157161899Y-68876819D01*
X157413181Y-69128101D01*
X157446666Y-69189424D01*
X157449500Y-69215782D01*
X157449500Y-73702465D01*
X157429815Y-73769504D01*
X157377011Y-73815259D01*
X157338102Y-73825823D01*
X157297202Y-73830001D01*
X157297200Y-73830001D01*
X157130668Y-73885185D01*
X157130663Y-73885187D01*
X156981342Y-73977289D01*
X156857289Y-74101342D01*
X156765187Y-74250663D01*
X156765185Y-74250668D01*
X156756074Y-74278163D01*
X156710001Y-74417203D01*
X156710001Y-74417204D01*
X156710000Y-74417204D01*
X156699500Y-74519983D01*
X156699500Y-75920001D01*
X156699501Y-75920018D01*
X156710000Y-76022796D01*
X156710001Y-76022799D01*
X156749701Y-76142604D01*
X156765186Y-76189334D01*
X156857288Y-76338656D01*
X156981344Y-76462712D01*
X157130666Y-76554814D01*
X157297203Y-76609999D01*
X157338103Y-76614177D01*
X157402793Y-76640573D01*
X157442945Y-76697753D01*
X157449500Y-76737535D01*
X157449500Y-77134308D01*
X157429815Y-77201347D01*
X157425819Y-77207192D01*
X157406657Y-77233566D01*
X157406656Y-77233568D01*
X157299433Y-77444003D01*
X157226446Y-77668631D01*
X157189500Y-77901902D01*
X157189500Y-82399365D01*
X157226446Y-82632636D01*
X157299433Y-82857264D01*
X157365216Y-82986369D01*
X157406657Y-83067702D01*
X157545483Y-83258778D01*
X158066222Y-83779518D01*
X158110454Y-83811654D01*
X158143103Y-83846872D01*
X158147286Y-83853654D01*
X158147287Y-83853655D01*
X158147288Y-83853656D01*
X158271344Y-83977712D01*
X158420666Y-84069814D01*
X158587203Y-84124999D01*
X158689991Y-84135500D01*
X158915637Y-84135499D01*
X158915649Y-84135500D01*
X158925640Y-84135500D01*
X159169420Y-84135500D01*
X159169436Y-84135499D01*
X159290002Y-84135499D01*
X159290008Y-84135499D01*
X159392797Y-84124999D01*
X159559334Y-84069814D01*
X159680666Y-83994974D01*
X159689431Y-83990049D01*
X159830166Y-83918343D01*
X160021242Y-83779518D01*
X160188250Y-83612510D01*
X160327075Y-83421434D01*
X160434300Y-83210993D01*
X160507285Y-82986369D01*
X160527734Y-82857260D01*
X160544232Y-82753097D01*
X160544232Y-82645207D01*
X160563917Y-82578168D01*
X160580551Y-82557526D01*
X160675509Y-82462568D01*
X160789020Y-82349056D01*
X160850342Y-82315573D01*
X160857302Y-82314266D01*
X161051218Y-82283553D01*
X161275842Y-82210568D01*
X161486283Y-82103343D01*
X161677360Y-81964517D01*
X161844367Y-81797510D01*
X161983193Y-81606433D01*
X162090418Y-81395992D01*
X162163403Y-81171368D01*
X162187126Y-81021587D01*
X162200350Y-80938097D01*
X162200350Y-80909385D01*
X162220035Y-80842346D01*
X162272839Y-80796591D01*
X162341997Y-80786647D01*
X162398661Y-80810119D01*
X162508564Y-80892393D01*
X162508571Y-80892397D01*
X162553518Y-80909161D01*
X162643417Y-80942691D01*
X162703027Y-80949100D01*
X163285500Y-80949099D01*
X163352539Y-80968783D01*
X163398294Y-81021587D01*
X163409500Y-81073099D01*
X163409500Y-81347869D01*
X163409501Y-81347876D01*
X163415908Y-81407483D01*
X163466202Y-81542328D01*
X163466206Y-81542335D01*
X163528559Y-81625627D01*
X163552454Y-81657546D01*
X163565788Y-81667528D01*
X163607657Y-81723459D01*
X163612642Y-81793150D01*
X163579158Y-81854474D01*
X163467287Y-81966345D01*
X163375187Y-82115663D01*
X163375185Y-82115668D01*
X163361619Y-82156607D01*
X163320001Y-82282203D01*
X163320001Y-82282204D01*
X163320000Y-82282204D01*
X163309500Y-82384983D01*
X163309500Y-83435001D01*
X163309501Y-83435019D01*
X163320000Y-83537796D01*
X163320001Y-83537799D01*
X163365962Y-83676497D01*
X163368364Y-83746325D01*
X163332632Y-83806367D01*
X163270112Y-83837560D01*
X163248256Y-83839501D01*
X162468615Y-83839501D01*
X162318802Y-83869301D01*
X162318794Y-83869303D01*
X162177667Y-83927760D01*
X162177657Y-83927765D01*
X162050648Y-84012630D01*
X162050644Y-84012633D01*
X161942633Y-84120644D01*
X161942630Y-84120648D01*
X161857765Y-84247657D01*
X161857760Y-84247667D01*
X161799303Y-84388794D01*
X161799301Y-84388802D01*
X161769501Y-84538615D01*
X161769501Y-84691384D01*
X161792335Y-84806178D01*
X161786108Y-84875770D01*
X161743245Y-84930947D01*
X161677355Y-84954191D01*
X161609358Y-84938123D01*
X161578044Y-84911225D01*
X161577819Y-84911451D01*
X161574842Y-84908474D01*
X161573452Y-84907280D01*
X161572711Y-84906343D01*
X161448657Y-84782289D01*
X161448656Y-84782288D01*
X161339284Y-84714827D01*
X161299336Y-84690187D01*
X161299331Y-84690185D01*
X161297862Y-84689698D01*
X161132797Y-84635001D01*
X161132795Y-84635000D01*
X161030010Y-84624500D01*
X160029998Y-84624500D01*
X160029980Y-84624501D01*
X159927203Y-84635000D01*
X159927200Y-84635001D01*
X159760668Y-84690185D01*
X159760663Y-84690187D01*
X159611342Y-84782289D01*
X159487289Y-84906342D01*
X159443031Y-84978097D01*
X159391083Y-85024821D01*
X159337492Y-85037000D01*
X157387598Y-85037000D01*
X157320559Y-85017315D01*
X157299917Y-85000681D01*
X148776818Y-76477583D01*
X148743333Y-76416260D01*
X148740499Y-76389911D01*
X148740499Y-75099992D01*
X148729999Y-74997203D01*
X148674814Y-74830666D01*
X148582712Y-74681344D01*
X148458656Y-74557288D01*
X148309334Y-74465186D01*
X148142797Y-74410001D01*
X148142795Y-74410000D01*
X148040010Y-74399500D01*
X146439998Y-74399500D01*
X146439981Y-74399501D01*
X146337203Y-74410000D01*
X146337200Y-74410001D01*
X146170668Y-74465185D01*
X146170663Y-74465187D01*
X146021342Y-74557289D01*
X145897289Y-74681342D01*
X145805187Y-74830663D01*
X145805186Y-74830666D01*
X145750001Y-74997203D01*
X145750001Y-74997204D01*
X145750000Y-74997204D01*
X145739500Y-75099983D01*
X145739500Y-76400001D01*
X145739501Y-76400018D01*
X145750000Y-76502796D01*
X145750001Y-76502799D01*
X145805185Y-76669331D01*
X145805187Y-76669336D01*
X145840069Y-76725888D01*
X145897288Y-76818656D01*
X146021344Y-76942712D01*
X146090095Y-76985118D01*
X146176120Y-77038178D01*
X146222845Y-77090126D01*
X146234068Y-77159088D01*
X146206224Y-77223171D01*
X146198706Y-77231398D01*
X146059889Y-77370215D01*
X145934951Y-77542179D01*
X145838444Y-77731585D01*
X145772753Y-77933760D01*
X145757593Y-78029478D01*
X145739500Y-78143713D01*
X145739500Y-78356287D01*
X145772754Y-78566243D01*
X145820393Y-78712861D01*
X145838444Y-78768414D01*
X145934951Y-78957820D01*
X146059890Y-79129786D01*
X146210213Y-79280109D01*
X146382179Y-79405048D01*
X146382181Y-79405049D01*
X146382184Y-79405051D01*
X146571588Y-79501557D01*
X146773757Y-79567246D01*
X146983713Y-79600500D01*
X146983714Y-79600500D01*
X147496286Y-79600500D01*
X147496287Y-79600500D01*
X147706243Y-79567246D01*
X147908412Y-79501557D01*
X148097816Y-79405051D01*
X148169234Y-79353163D01*
X148269784Y-79280110D01*
X148269784Y-79280109D01*
X148269792Y-79280104D01*
X148382652Y-79167243D01*
X148443971Y-79133761D01*
X148513663Y-79138745D01*
X148558011Y-79167246D01*
X157217639Y-87826874D01*
X157217649Y-87826885D01*
X157221979Y-87831215D01*
X157221980Y-87831216D01*
X157333784Y-87943020D01*
X157333786Y-87943021D01*
X157333790Y-87943024D01*
X157470709Y-88022073D01*
X157470716Y-88022077D01*
X157582519Y-88052034D01*
X157623442Y-88063000D01*
X157623443Y-88063000D01*
X159337492Y-88063000D01*
X159404531Y-88082685D01*
X159443029Y-88121901D01*
X159487288Y-88193656D01*
X159611344Y-88317712D01*
X159760666Y-88409814D01*
X159927203Y-88464999D01*
X160029991Y-88475500D01*
X161030008Y-88475499D01*
X161030016Y-88475498D01*
X161030019Y-88475498D01*
X161086302Y-88469748D01*
X161132797Y-88464999D01*
X161299334Y-88409814D01*
X161448656Y-88317712D01*
X161567799Y-88198568D01*
X161629118Y-88165086D01*
X161698810Y-88170070D01*
X161754744Y-88211941D01*
X161779161Y-88277405D01*
X161777095Y-88310442D01*
X161769501Y-88348621D01*
X161769501Y-88501384D01*
X161799301Y-88651197D01*
X161799303Y-88651205D01*
X161857760Y-88792332D01*
X161857765Y-88792342D01*
X161942630Y-88919351D01*
X161942633Y-88919355D01*
X162050644Y-89027366D01*
X162050648Y-89027369D01*
X162177657Y-89112234D01*
X162177661Y-89112236D01*
X162177664Y-89112238D01*
X162318795Y-89170697D01*
X162451462Y-89197086D01*
X162468615Y-89200498D01*
X162468619Y-89200499D01*
X162468620Y-89200499D01*
X163321383Y-89200499D01*
X163321384Y-89200498D01*
X163471207Y-89170697D01*
X163612338Y-89112238D01*
X163739354Y-89027369D01*
X163847371Y-88919352D01*
X163932240Y-88792336D01*
X163990699Y-88651205D01*
X164020501Y-88501380D01*
X164020501Y-88348620D01*
X164020500Y-88348615D01*
X167019501Y-88348615D01*
X167019501Y-88501384D01*
X167049301Y-88651197D01*
X167049303Y-88651205D01*
X167107760Y-88792332D01*
X167107765Y-88792342D01*
X167192630Y-88919351D01*
X167192633Y-88919355D01*
X167300644Y-89027366D01*
X167300648Y-89027369D01*
X167427657Y-89112234D01*
X167427661Y-89112236D01*
X167427664Y-89112238D01*
X167568795Y-89170697D01*
X167701462Y-89197086D01*
X167718615Y-89200498D01*
X167718619Y-89200499D01*
X167718620Y-89200499D01*
X167928260Y-89200499D01*
X167952450Y-89202881D01*
X167978669Y-89208097D01*
X168066156Y-89225500D01*
X168066159Y-89225500D01*
X168223845Y-89225500D01*
X168302288Y-89209896D01*
X168337551Y-89202881D01*
X168361742Y-89200499D01*
X168571383Y-89200499D01*
X168571384Y-89200498D01*
X168721207Y-89170697D01*
X168862338Y-89112238D01*
X168989354Y-89027369D01*
X169097371Y-88919352D01*
X169182240Y-88792336D01*
X169240699Y-88651205D01*
X169270501Y-88501380D01*
X169270501Y-88348620D01*
X169240699Y-88198795D01*
X169182240Y-88057664D01*
X169182238Y-88057661D01*
X169182236Y-88057657D01*
X169097371Y-87930648D01*
X169097368Y-87930644D01*
X168989357Y-87822633D01*
X168989353Y-87822630D01*
X168862344Y-87737765D01*
X168862334Y-87737760D01*
X168721207Y-87679303D01*
X168721199Y-87679301D01*
X168571386Y-87649501D01*
X168571382Y-87649501D01*
X168361742Y-87649501D01*
X168337551Y-87647118D01*
X168302288Y-87640103D01*
X168223845Y-87624500D01*
X168223843Y-87624500D01*
X168066159Y-87624500D01*
X168066157Y-87624500D01*
X167987713Y-87640103D01*
X167952450Y-87647118D01*
X167928260Y-87649501D01*
X167718615Y-87649501D01*
X167568802Y-87679301D01*
X167568794Y-87679303D01*
X167427667Y-87737760D01*
X167427657Y-87737765D01*
X167300648Y-87822630D01*
X167300644Y-87822633D01*
X167192633Y-87930644D01*
X167192630Y-87930648D01*
X167107765Y-88057657D01*
X167107760Y-88057667D01*
X167049303Y-88198794D01*
X167049301Y-88198802D01*
X167019501Y-88348615D01*
X164020500Y-88348615D01*
X163990699Y-88198795D01*
X163932240Y-88057664D01*
X163932238Y-88057661D01*
X163932236Y-88057657D01*
X163847371Y-87930648D01*
X163847368Y-87930644D01*
X163794405Y-87877681D01*
X163760920Y-87816358D01*
X163765904Y-87746666D01*
X163794405Y-87702319D01*
X163847368Y-87649355D01*
X163847371Y-87649352D01*
X163932240Y-87522336D01*
X163990699Y-87381205D01*
X164020501Y-87231380D01*
X164020501Y-87078620D01*
X163990699Y-86928795D01*
X163932240Y-86787664D01*
X163932238Y-86787661D01*
X163932236Y-86787657D01*
X163847371Y-86660648D01*
X163847368Y-86660644D01*
X163794405Y-86607681D01*
X163760920Y-86546358D01*
X163765904Y-86476666D01*
X163794405Y-86432319D01*
X163847368Y-86379355D01*
X163847371Y-86379352D01*
X163932240Y-86252336D01*
X163990699Y-86111205D01*
X164020501Y-85961380D01*
X164020501Y-85808620D01*
X163990699Y-85658795D01*
X163932240Y-85517664D01*
X163932238Y-85517661D01*
X163932236Y-85517657D01*
X163847371Y-85390648D01*
X163847368Y-85390644D01*
X163794405Y-85337681D01*
X163760920Y-85276358D01*
X163765904Y-85206666D01*
X163794405Y-85162319D01*
X163847368Y-85109355D01*
X163847371Y-85109352D01*
X163932240Y-84982336D01*
X163990699Y-84841205D01*
X164020501Y-84691380D01*
X164020501Y-84538620D01*
X163990699Y-84388795D01*
X163956797Y-84306951D01*
X163949329Y-84237483D01*
X163980604Y-84175003D01*
X164040693Y-84139351D01*
X164071351Y-84135499D01*
X164610008Y-84135499D01*
X164610016Y-84135498D01*
X164610019Y-84135498D01*
X164707892Y-84125500D01*
X164712797Y-84124999D01*
X164879334Y-84069814D01*
X165003012Y-83993529D01*
X165070402Y-83975090D01*
X165133200Y-83993529D01*
X165240666Y-84059814D01*
X165407203Y-84114999D01*
X165509991Y-84125500D01*
X166110008Y-84125499D01*
X166182898Y-84118053D01*
X166251591Y-84130823D01*
X166302475Y-84178703D01*
X166319500Y-84241411D01*
X166319500Y-84990636D01*
X166319500Y-84990638D01*
X166319499Y-84990638D01*
X166348340Y-85135625D01*
X166348343Y-85135635D01*
X166404913Y-85272208D01*
X166404914Y-85272209D01*
X166404916Y-85272213D01*
X166424851Y-85302047D01*
X166424852Y-85302049D01*
X166487051Y-85395138D01*
X166487052Y-85395139D01*
X166984511Y-85892596D01*
X167017996Y-85953919D01*
X167018447Y-85956086D01*
X167049301Y-86111197D01*
X167049303Y-86111205D01*
X167107760Y-86252332D01*
X167107765Y-86252342D01*
X167192630Y-86379351D01*
X167192633Y-86379355D01*
X167300644Y-86487366D01*
X167300648Y-86487369D01*
X167427657Y-86572234D01*
X167427661Y-86572236D01*
X167427664Y-86572238D01*
X167568795Y-86630697D01*
X167718615Y-86660498D01*
X167718619Y-86660499D01*
X167718620Y-86660499D01*
X168571383Y-86660499D01*
X168571384Y-86660498D01*
X168721207Y-86630697D01*
X168862338Y-86572238D01*
X168989354Y-86487369D01*
X169097371Y-86379352D01*
X169182240Y-86252336D01*
X169240699Y-86111205D01*
X169270501Y-85961380D01*
X169270501Y-85808620D01*
X169240699Y-85658795D01*
X169182240Y-85517664D01*
X169182238Y-85517661D01*
X169182236Y-85517657D01*
X169097371Y-85390648D01*
X169097368Y-85390644D01*
X169044405Y-85337681D01*
X169010920Y-85276358D01*
X169015904Y-85206666D01*
X169044405Y-85162319D01*
X169097368Y-85109355D01*
X169097371Y-85109352D01*
X169182240Y-84982336D01*
X169240699Y-84841205D01*
X169270501Y-84691380D01*
X169270501Y-84538620D01*
X169240699Y-84388795D01*
X169182240Y-84247664D01*
X169182238Y-84247661D01*
X169182236Y-84247657D01*
X169097371Y-84120648D01*
X169097368Y-84120644D01*
X168989357Y-84012633D01*
X168989353Y-84012630D01*
X168862344Y-83927765D01*
X168862334Y-83927760D01*
X168721202Y-83869301D01*
X168719590Y-83868812D01*
X168718850Y-83868326D01*
X168715579Y-83866972D01*
X168715836Y-83866351D01*
X168661157Y-83830506D01*
X168632709Y-83766690D01*
X168642689Y-83701237D01*
X168642542Y-83701189D01*
X168642828Y-83700324D01*
X168643221Y-83697750D01*
X168644812Y-83694337D01*
X168644811Y-83694337D01*
X168644814Y-83694334D01*
X168699999Y-83527797D01*
X168710500Y-83425009D01*
X168710500Y-82919418D01*
X168710500Y-82044500D01*
X168730185Y-81977461D01*
X168782989Y-81931706D01*
X168834500Y-81920500D01*
X174482975Y-81920500D01*
X174482983Y-81920499D01*
X174895002Y-81920499D01*
X174895008Y-81920499D01*
X174997797Y-81909999D01*
X175164334Y-81854814D01*
X175313656Y-81762712D01*
X175437712Y-81638656D01*
X175529814Y-81489334D01*
X175584999Y-81322797D01*
X175595500Y-81220009D01*
X175595499Y-80619992D01*
X175594419Y-80609420D01*
X175607188Y-80540728D01*
X175630093Y-80509140D01*
X176224165Y-79915068D01*
X176285486Y-79881585D01*
X176346436Y-79883674D01*
X176446373Y-79912709D01*
X176481837Y-79915500D01*
X176858162Y-79915499D01*
X176893627Y-79912709D01*
X177035405Y-79871519D01*
X177104595Y-79871519D01*
X177204418Y-79900520D01*
X177246373Y-79912709D01*
X177281837Y-79915500D01*
X177658162Y-79915499D01*
X177693627Y-79912709D01*
X177835405Y-79871519D01*
X177904595Y-79871519D01*
X178004418Y-79900520D01*
X178046373Y-79912709D01*
X178081837Y-79915500D01*
X178458162Y-79915499D01*
X178493627Y-79912709D01*
X178635405Y-79871519D01*
X178704595Y-79871519D01*
X178804418Y-79900520D01*
X178846373Y-79912709D01*
X178881837Y-79915500D01*
X179258162Y-79915499D01*
X179293627Y-79912709D01*
X179435405Y-79871519D01*
X179504595Y-79871519D01*
X179604418Y-79900520D01*
X179646373Y-79912709D01*
X179681837Y-79915500D01*
X179945501Y-79915499D01*
X180012539Y-79935183D01*
X180058294Y-79987987D01*
X180069500Y-80039499D01*
X180069500Y-82300500D01*
X180049815Y-82367539D01*
X179997011Y-82413294D01*
X179945500Y-82424500D01*
X179928384Y-82424500D01*
X179909145Y-82426248D01*
X179857807Y-82430913D01*
X179695393Y-82481522D01*
X179549811Y-82569530D01*
X179549810Y-82569531D01*
X179447681Y-82671661D01*
X179386358Y-82705146D01*
X179316666Y-82700162D01*
X179272319Y-82671661D01*
X179170188Y-82569530D01*
X179069497Y-82508660D01*
X179024606Y-82481522D01*
X178862196Y-82430914D01*
X178862194Y-82430913D01*
X178862192Y-82430913D01*
X178812778Y-82426423D01*
X178791616Y-82424500D01*
X178278384Y-82424500D01*
X178207804Y-82430914D01*
X178170590Y-82442509D01*
X178106219Y-82462568D01*
X178036358Y-82463718D01*
X177976966Y-82426916D01*
X177968715Y-82415240D01*
X177968412Y-82415468D01*
X177876847Y-82293154D01*
X177876844Y-82293151D01*
X177761635Y-82206905D01*
X177761628Y-82206901D01*
X177626782Y-82156607D01*
X177626783Y-82156607D01*
X177567183Y-82150200D01*
X177567181Y-82150199D01*
X177567173Y-82150199D01*
X177567164Y-82150199D01*
X175972829Y-82150199D01*
X175972823Y-82150200D01*
X175913216Y-82156607D01*
X175778371Y-82206901D01*
X175778364Y-82206905D01*
X175663155Y-82293151D01*
X175663152Y-82293154D01*
X175576906Y-82408363D01*
X175576902Y-82408370D01*
X175526608Y-82543216D01*
X175520201Y-82602815D01*
X175520200Y-82602834D01*
X175520200Y-84197169D01*
X175520201Y-84197175D01*
X175526609Y-84256784D01*
X175545214Y-84306668D01*
X175550198Y-84376360D01*
X175545214Y-84393332D01*
X175526609Y-84443215D01*
X175526608Y-84443217D01*
X175520201Y-84502817D01*
X175520200Y-84502836D01*
X175520200Y-86097171D01*
X175520201Y-86097177D01*
X175526608Y-86156784D01*
X175576902Y-86291629D01*
X175576906Y-86291636D01*
X175663152Y-86406845D01*
X175663155Y-86406848D01*
X175778364Y-86493094D01*
X175778371Y-86493098D01*
X175913217Y-86543392D01*
X175913216Y-86543392D01*
X175920144Y-86544136D01*
X175972827Y-86549801D01*
X177567172Y-86549800D01*
X177626783Y-86543392D01*
X177761631Y-86493097D01*
X177876846Y-86406847D01*
X177963096Y-86291632D01*
X177963096Y-86291630D01*
X177964490Y-86289769D01*
X178020424Y-86247898D01*
X178090116Y-86242914D01*
X178100622Y-86245687D01*
X178207804Y-86279086D01*
X178278384Y-86285500D01*
X178278387Y-86285500D01*
X178791613Y-86285500D01*
X178791616Y-86285500D01*
X178862196Y-86279086D01*
X179024606Y-86228478D01*
X179170185Y-86140472D01*
X179213486Y-86097171D01*
X179272319Y-86038339D01*
X179333642Y-86004854D01*
X179403334Y-86009838D01*
X179447681Y-86038339D01*
X179549811Y-86140469D01*
X179549813Y-86140470D01*
X179549815Y-86140472D01*
X179695394Y-86228478D01*
X179857804Y-86279086D01*
X179928384Y-86285500D01*
X179928387Y-86285500D01*
X180441613Y-86285500D01*
X180441616Y-86285500D01*
X180512196Y-86279086D01*
X180674606Y-86228478D01*
X180820185Y-86140472D01*
X180940472Y-86020185D01*
X181028478Y-85874606D01*
X181079086Y-85712196D01*
X181085500Y-85641616D01*
X181085500Y-85310096D01*
X181105185Y-85243057D01*
X181121815Y-85222419D01*
X181828506Y-84515727D01*
X181828511Y-84515724D01*
X181838714Y-84505520D01*
X181838716Y-84505520D01*
X181950520Y-84393716D01*
X182029577Y-84256784D01*
X182062075Y-84135499D01*
X182070500Y-84104058D01*
X182070500Y-83945943D01*
X182070500Y-79748100D01*
X182089520Y-79683324D01*
X182089199Y-79683135D01*
X182089947Y-79681868D01*
X182090185Y-79681061D01*
X182091654Y-79678982D01*
X182093167Y-79676422D01*
X182093170Y-79676420D01*
X182173618Y-79540390D01*
X182217709Y-79388627D01*
X182220500Y-79353163D01*
X182220499Y-79131861D01*
X182240183Y-79064823D01*
X182292987Y-79019068D01*
X182362145Y-79009124D01*
X182406497Y-79024474D01*
X182467297Y-79059577D01*
X182620024Y-79100500D01*
X182620025Y-79100500D01*
X183929903Y-79100500D01*
X183959343Y-79109144D01*
X183989330Y-79115668D01*
X183994345Y-79119422D01*
X183996942Y-79120185D01*
X184017584Y-79136819D01*
X184183181Y-79302416D01*
X184216666Y-79363739D01*
X184219500Y-79390097D01*
X184219500Y-79391459D01*
X184219500Y-79588541D01*
X184219500Y-79588543D01*
X184219499Y-79588543D01*
X184257947Y-79781829D01*
X184257950Y-79781839D01*
X184333364Y-79963907D01*
X184333371Y-79963920D01*
X184442860Y-80127781D01*
X184442863Y-80127785D01*
X184582214Y-80267136D01*
X184582218Y-80267139D01*
X184746079Y-80376628D01*
X184746092Y-80376635D01*
X184813206Y-80404434D01*
X184928165Y-80452051D01*
X184928169Y-80452051D01*
X184928170Y-80452052D01*
X185121456Y-80490500D01*
X185121459Y-80490500D01*
X185318543Y-80490500D01*
X185448582Y-80464632D01*
X185511835Y-80452051D01*
X185693914Y-80376632D01*
X185806609Y-80301332D01*
X185873287Y-80280454D01*
X185940667Y-80298938D01*
X185987357Y-80350917D01*
X185999500Y-80404434D01*
X185999500Y-89997438D01*
X185999394Y-90002562D01*
X185982636Y-90407726D01*
X185981790Y-90417940D01*
X185931947Y-90817802D01*
X185930260Y-90827910D01*
X185847569Y-91222285D01*
X185845053Y-91232221D01*
X185730075Y-91618423D01*
X185726747Y-91628116D01*
X185580271Y-92003502D01*
X185576154Y-92012887D01*
X185399186Y-92374880D01*
X185394309Y-92383894D01*
X185188037Y-92730064D01*
X185182431Y-92738644D01*
X184948284Y-93066587D01*
X184941989Y-93074674D01*
X184681566Y-93382155D01*
X184674625Y-93389695D01*
X184389695Y-93674625D01*
X184382155Y-93681566D01*
X184074674Y-93941989D01*
X184066587Y-93948284D01*
X183738644Y-94182431D01*
X183730064Y-94188037D01*
X183383894Y-94394309D01*
X183374880Y-94399186D01*
X183012887Y-94576154D01*
X183003502Y-94580271D01*
X182628116Y-94726747D01*
X182618423Y-94730075D01*
X182232221Y-94845053D01*
X182222285Y-94847569D01*
X181827910Y-94930260D01*
X181817802Y-94931947D01*
X181417940Y-94981790D01*
X181407726Y-94982636D01*
X181002563Y-94999394D01*
X180997439Y-94999500D01*
X150002561Y-94999500D01*
X149997437Y-94999394D01*
X149592273Y-94982636D01*
X149582059Y-94981790D01*
X149182197Y-94931947D01*
X149172089Y-94930260D01*
X148777714Y-94847569D01*
X148767778Y-94845053D01*
X148381576Y-94730075D01*
X148371883Y-94726747D01*
X147996497Y-94580271D01*
X147987112Y-94576154D01*
X147625119Y-94399186D01*
X147616105Y-94394309D01*
X147269935Y-94188037D01*
X147261355Y-94182431D01*
X146933412Y-93948284D01*
X146925325Y-93941989D01*
X146617844Y-93681566D01*
X146610304Y-93674625D01*
X146325374Y-93389695D01*
X146318433Y-93382155D01*
X146222354Y-93268715D01*
X146058005Y-93074668D01*
X146051715Y-93066587D01*
X145995044Y-92987215D01*
X145817564Y-92738638D01*
X145811962Y-92730064D01*
X145605690Y-92383894D01*
X145600813Y-92374880D01*
X145423845Y-92012887D01*
X145419728Y-92003502D01*
X145406061Y-91968476D01*
X145273247Y-91628104D01*
X145269928Y-91618436D01*
X145154942Y-91232208D01*
X145152430Y-91222285D01*
X145129567Y-91113247D01*
X145069737Y-90827901D01*
X145068054Y-90817817D01*
X145018207Y-90417919D01*
X145017364Y-90407746D01*
X145000606Y-90002562D01*
X145000500Y-89997438D01*
X145000500Y-89837860D01*
X146699500Y-89837860D01*
X146699500Y-90162139D01*
X146731284Y-90484857D01*
X146731287Y-90484874D01*
X146794545Y-90802902D01*
X146794548Y-90802913D01*
X146888686Y-91113247D01*
X147012786Y-91412849D01*
X147012788Y-91412854D01*
X147165646Y-91698830D01*
X147165657Y-91698848D01*
X147345811Y-91968467D01*
X147345821Y-91968481D01*
X147551546Y-92219158D01*
X147780841Y-92448453D01*
X147780846Y-92448457D01*
X147780847Y-92448458D01*
X148031524Y-92654183D01*
X148301158Y-92834347D01*
X148301167Y-92834352D01*
X148301169Y-92834353D01*
X148587145Y-92987211D01*
X148587147Y-92987211D01*
X148587153Y-92987215D01*
X148886754Y-93111314D01*
X149197077Y-93205449D01*
X149197083Y-93205450D01*
X149197086Y-93205451D01*
X149197097Y-93205454D01*
X149396528Y-93245122D01*
X149515132Y-93268714D01*
X149837857Y-93300500D01*
X149837860Y-93300500D01*
X150162140Y-93300500D01*
X150162143Y-93300500D01*
X150484868Y-93268714D01*
X150642295Y-93237399D01*
X150802902Y-93205454D01*
X150802913Y-93205451D01*
X150802913Y-93205450D01*
X150802923Y-93205449D01*
X151113246Y-93111314D01*
X151412847Y-92987215D01*
X151698842Y-92834347D01*
X151968476Y-92654183D01*
X152219153Y-92448458D01*
X152448458Y-92219153D01*
X152654183Y-91968476D01*
X152834347Y-91698842D01*
X152987215Y-91412847D01*
X153111314Y-91113246D01*
X153205449Y-90802923D01*
X153205451Y-90802913D01*
X153205454Y-90802902D01*
X153237399Y-90642295D01*
X153268714Y-90484868D01*
X153300500Y-90162143D01*
X153300500Y-89837860D01*
X177699500Y-89837860D01*
X177699500Y-90162139D01*
X177731284Y-90484857D01*
X177731287Y-90484874D01*
X177794545Y-90802902D01*
X177794548Y-90802913D01*
X177888686Y-91113247D01*
X178012786Y-91412849D01*
X178012788Y-91412854D01*
X178165646Y-91698830D01*
X178165657Y-91698848D01*
X178345811Y-91968467D01*
X178345821Y-91968481D01*
X178551546Y-92219158D01*
X178780841Y-92448453D01*
X178780846Y-92448457D01*
X178780847Y-92448458D01*
X179031524Y-92654183D01*
X179301158Y-92834347D01*
X179301167Y-92834352D01*
X179301169Y-92834353D01*
X179587145Y-92987211D01*
X179587147Y-92987211D01*
X179587153Y-92987215D01*
X179886754Y-93111314D01*
X180197077Y-93205449D01*
X180197083Y-93205450D01*
X180197086Y-93205451D01*
X180197097Y-93205454D01*
X180396528Y-93245122D01*
X180515132Y-93268714D01*
X180837857Y-93300500D01*
X180837860Y-93300500D01*
X181162140Y-93300500D01*
X181162143Y-93300500D01*
X181484868Y-93268714D01*
X181642295Y-93237399D01*
X181802902Y-93205454D01*
X181802913Y-93205451D01*
X181802913Y-93205450D01*
X181802923Y-93205449D01*
X182113246Y-93111314D01*
X182412847Y-92987215D01*
X182698842Y-92834347D01*
X182968476Y-92654183D01*
X183219153Y-92448458D01*
X183448458Y-92219153D01*
X183654183Y-91968476D01*
X183834347Y-91698842D01*
X183987215Y-91412847D01*
X184111314Y-91113246D01*
X184205449Y-90802923D01*
X184205451Y-90802913D01*
X184205454Y-90802902D01*
X184237399Y-90642295D01*
X184268714Y-90484868D01*
X184300500Y-90162143D01*
X184300500Y-89837857D01*
X184268714Y-89515132D01*
X184245122Y-89396528D01*
X184205454Y-89197097D01*
X184205451Y-89197086D01*
X184205450Y-89197083D01*
X184205449Y-89197077D01*
X184111314Y-88886754D01*
X183987215Y-88587153D01*
X183941370Y-88501384D01*
X183834353Y-88301169D01*
X183834352Y-88301167D01*
X183834347Y-88301158D01*
X183654183Y-88031524D01*
X183448458Y-87780847D01*
X183448457Y-87780846D01*
X183448453Y-87780841D01*
X183219158Y-87551546D01*
X182968481Y-87345821D01*
X182968480Y-87345820D01*
X182968476Y-87345817D01*
X182698842Y-87165653D01*
X182698837Y-87165650D01*
X182698830Y-87165646D01*
X182412854Y-87012788D01*
X182412849Y-87012786D01*
X182113247Y-86888686D01*
X181802913Y-86794548D01*
X181802902Y-86794545D01*
X181484874Y-86731287D01*
X181484857Y-86731284D01*
X181240812Y-86707248D01*
X181162143Y-86699500D01*
X180837857Y-86699500D01*
X180765099Y-86706666D01*
X180515142Y-86731284D01*
X180515125Y-86731287D01*
X180197097Y-86794545D01*
X180197086Y-86794548D01*
X179886752Y-86888686D01*
X179587150Y-87012786D01*
X179587145Y-87012788D01*
X179301169Y-87165646D01*
X179301151Y-87165657D01*
X179031532Y-87345811D01*
X179031518Y-87345821D01*
X178780841Y-87551546D01*
X178551546Y-87780841D01*
X178345821Y-88031518D01*
X178345811Y-88031532D01*
X178165657Y-88301151D01*
X178165646Y-88301169D01*
X178012788Y-88587145D01*
X178012786Y-88587150D01*
X177888686Y-88886752D01*
X177794548Y-89197086D01*
X177794545Y-89197097D01*
X177731287Y-89515125D01*
X177731284Y-89515142D01*
X177699500Y-89837860D01*
X153300500Y-89837860D01*
X153300500Y-89837857D01*
X153268714Y-89515132D01*
X153245122Y-89396528D01*
X153205454Y-89197097D01*
X153205451Y-89197086D01*
X153205450Y-89197083D01*
X153205449Y-89197077D01*
X153111314Y-88886754D01*
X152987215Y-88587153D01*
X152941370Y-88501384D01*
X152834353Y-88301169D01*
X152834352Y-88301167D01*
X152834347Y-88301158D01*
X152654183Y-88031524D01*
X152448458Y-87780847D01*
X152448457Y-87780846D01*
X152448453Y-87780841D01*
X152219158Y-87551546D01*
X151968481Y-87345821D01*
X151968480Y-87345820D01*
X151968476Y-87345817D01*
X151698842Y-87165653D01*
X151698837Y-87165650D01*
X151698830Y-87165646D01*
X151412854Y-87012788D01*
X151412849Y-87012786D01*
X151113247Y-86888686D01*
X150802913Y-86794548D01*
X150802902Y-86794545D01*
X150484874Y-86731287D01*
X150484857Y-86731284D01*
X150240812Y-86707248D01*
X150162143Y-86699500D01*
X149837857Y-86699500D01*
X149765099Y-86706666D01*
X149515142Y-86731284D01*
X149515125Y-86731287D01*
X149197097Y-86794545D01*
X149197086Y-86794548D01*
X148886752Y-86888686D01*
X148587150Y-87012786D01*
X148587145Y-87012788D01*
X148301169Y-87165646D01*
X148301151Y-87165657D01*
X148031532Y-87345811D01*
X148031518Y-87345821D01*
X147780841Y-87551546D01*
X147551546Y-87780841D01*
X147345821Y-88031518D01*
X147345811Y-88031532D01*
X147165657Y-88301151D01*
X147165646Y-88301169D01*
X147012788Y-88587145D01*
X147012786Y-88587150D01*
X146888686Y-88886752D01*
X146794548Y-89197086D01*
X146794545Y-89197097D01*
X146731287Y-89515125D01*
X146731284Y-89515142D01*
X146699500Y-89837860D01*
X145000500Y-89837860D01*
X145000500Y-59002561D01*
X145000606Y-58997437D01*
X145010251Y-58764240D01*
X145017364Y-58592251D01*
X145018207Y-58582082D01*
X145068055Y-58182178D01*
X145069736Y-58172102D01*
X145152433Y-57777699D01*
X145154941Y-57767797D01*
X145269930Y-57381555D01*
X145273245Y-57371902D01*
X145419733Y-56996485D01*
X145423839Y-56987125D01*
X145600817Y-56625111D01*
X145605690Y-56616105D01*
X145811973Y-56269918D01*
X145817556Y-56261372D01*
X146051728Y-55933394D01*
X146057996Y-55925342D01*
X146318443Y-55617832D01*
X146325362Y-55610316D01*
X146610316Y-55325362D01*
X146617832Y-55318443D01*
X146925342Y-55057996D01*
X146933394Y-55051728D01*
X147261372Y-54817556D01*
X147269918Y-54811973D01*
X147616113Y-54605685D01*
X147625111Y-54600817D01*
X147987125Y-54423839D01*
X147996485Y-54419733D01*
X148371902Y-54273245D01*
X148381555Y-54269930D01*
X148767797Y-54154941D01*
X148777699Y-54152433D01*
X149172102Y-54069736D01*
X149182178Y-54068055D01*
X149582082Y-54018207D01*
X149592251Y-54017364D01*
X149997437Y-54000605D01*
X150002561Y-54000500D01*
X150065892Y-54000500D01*
X180934108Y-54000500D01*
X180997439Y-54000500D01*
X181002562Y-54000605D01*
G37*
%TD.AperFunction*%
%TA.AperFunction,Conductor*%
G36*
X185940667Y-72798938D02*
G01*
X185987357Y-72850917D01*
X185999500Y-72904434D01*
X185999500Y-76075565D01*
X185979815Y-76142604D01*
X185927011Y-76188359D01*
X185857853Y-76198303D01*
X185806610Y-76178668D01*
X185693918Y-76103370D01*
X185693907Y-76103364D01*
X185511839Y-76027950D01*
X185511829Y-76027947D01*
X185318543Y-75989500D01*
X185318541Y-75989500D01*
X185133500Y-75989500D01*
X185066461Y-75969815D01*
X185020706Y-75917011D01*
X185009500Y-75865500D01*
X185009500Y-73419026D01*
X185009499Y-73419019D01*
X185000754Y-73386382D01*
X184968577Y-73266297D01*
X184929950Y-73199394D01*
X184929950Y-73199393D01*
X184905688Y-73157370D01*
X184889215Y-73089470D01*
X184912068Y-73023443D01*
X184966989Y-72980252D01*
X185036542Y-72973611D01*
X185037267Y-72973753D01*
X185121456Y-72990500D01*
X185121459Y-72990500D01*
X185318543Y-72990500D01*
X185448582Y-72964632D01*
X185511835Y-72952051D01*
X185693914Y-72876632D01*
X185806609Y-72801332D01*
X185873287Y-72780454D01*
X185940667Y-72798938D01*
G37*
%TD.AperFunction*%
%TD*%
%TA.AperFunction,Conductor*%
%TO.N,Net-(MotorConn1-Pin_3)*%
G36*
X163727452Y-58200674D02*
G01*
X164873985Y-58458358D01*
X164881305Y-58463515D01*
X164883026Y-58468300D01*
X165348322Y-62133883D01*
X165345964Y-62142521D01*
X165338188Y-62146963D01*
X165336715Y-62147056D01*
X165006253Y-62147056D01*
X164997980Y-62143629D01*
X164996520Y-62141849D01*
X164991206Y-62133883D01*
X163014345Y-59170570D01*
X163012605Y-59161788D01*
X163014655Y-59157146D01*
X163715471Y-58205152D01*
X163723132Y-58200523D01*
X163727452Y-58200674D01*
G37*
%TD.AperFunction*%
%TD*%
%TA.AperFunction,Conductor*%
%TO.N,Net-(MotorConn1-Pin_4)*%
G36*
X161403637Y-58201781D02*
G01*
X161411903Y-58205225D01*
X161413216Y-58206799D01*
X163555300Y-61285370D01*
X163557212Y-61294118D01*
X163553969Y-61300325D01*
X163320325Y-61533969D01*
X163312052Y-61537396D01*
X163305370Y-61535300D01*
X160226799Y-59393216D01*
X160221965Y-59385678D01*
X160221781Y-59383637D01*
X160219317Y-58211040D01*
X160222726Y-58202761D01*
X160230990Y-58199317D01*
X161403637Y-58201781D01*
G37*
%TD.AperFunction*%
%TD*%
M02*
