%TF.GenerationSoftware,KiCad,Pcbnew,9.0.7*%
%TF.CreationDate,2026-01-27T18:23:45+01:00*%
%TF.ProjectId,NEMA17_FOC_Driver,4e454d41-3137-45f4-964f-435f44726976,rev?*%
%TF.SameCoordinates,Original*%
%TF.FileFunction,Paste,Top*%
%TF.FilePolarity,Positive*%
%FSLAX46Y46*%
G04 Gerber Fmt 4.6, Leading zero omitted, Abs format (unit mm)*
G04 Created by KiCad (PCBNEW 9.0.7) date 2026-01-27 18:23:45*
%MOMM*%
%LPD*%
G01*
G04 APERTURE LIST*
G04 Aperture macros list*
%AMRoundRect*
0 Rectangle with rounded corners*
0 $1 Rounding radius*
0 $2 $3 $4 $5 $6 $7 $8 $9 X,Y pos of 4 corners*
0 Add a 4 corners polygon primitive as box body*
4,1,4,$2,$3,$4,$5,$6,$7,$8,$9,$2,$3,0*
0 Add four circle primitives for the rounded corners*
1,1,$1+$1,$2,$3*
1,1,$1+$1,$4,$5*
1,1,$1+$1,$6,$7*
1,1,$1+$1,$8,$9*
0 Add four rect primitives between the rounded corners*
20,1,$1+$1,$2,$3,$4,$5,0*
20,1,$1+$1,$4,$5,$6,$7,0*
20,1,$1+$1,$6,$7,$8,$9,0*
20,1,$1+$1,$8,$9,$2,$3,0*%
G04 Aperture macros list end*
%ADD10C,0.000000*%
%ADD11RoundRect,0.200000X0.200000X0.275000X-0.200000X0.275000X-0.200000X-0.275000X0.200000X-0.275000X0*%
%ADD12RoundRect,0.250000X-0.450000X0.262500X-0.450000X-0.262500X0.450000X-0.262500X0.450000X0.262500X0*%
%ADD13RoundRect,0.225000X0.250000X-0.225000X0.250000X0.225000X-0.250000X0.225000X-0.250000X-0.225000X0*%
%ADD14O,1.250000X0.549999*%
%ADD15RoundRect,0.250000X-0.250000X-0.475000X0.250000X-0.475000X0.250000X0.475000X-0.250000X0.475000X0*%
%ADD16R,1.498600X1.498600*%
%ADD17R,0.304800X1.161999*%
%ADD18R,5.180000X3.099999*%
%ADD19R,0.698500X0.457200*%
%ADD20RoundRect,0.250000X0.475000X-0.250000X0.475000X0.250000X-0.475000X0.250000X-0.475000X-0.250000X0*%
%ADD21RoundRect,0.250000X-0.550000X1.500000X-0.550000X-1.500000X0.550000X-1.500000X0.550000X1.500000X0*%
%ADD22R,1.200000X3.300000*%
%ADD23RoundRect,0.125000X0.125000X-0.625000X0.125000X0.625000X-0.125000X0.625000X-0.125000X-0.625000X0*%
%ADD24RoundRect,0.125000X0.625000X-0.125000X0.625000X0.125000X-0.625000X0.125000X-0.625000X-0.125000X0*%
%ADD25RoundRect,0.250000X1.000000X0.650000X-1.000000X0.650000X-1.000000X-0.650000X1.000000X-0.650000X0*%
%ADD26RoundRect,0.225000X-0.225000X-0.250000X0.225000X-0.250000X0.225000X0.250000X-0.225000X0.250000X0*%
%ADD27RoundRect,0.250000X0.250000X0.475000X-0.250000X0.475000X-0.250000X-0.475000X0.250000X-0.475000X0*%
%ADD28RoundRect,0.200000X-0.200000X-0.275000X0.200000X-0.275000X0.200000X0.275000X-0.200000X0.275000X0*%
G04 APERTURE END LIST*
D10*
%TO.C,U1*%
G36*
X164105000Y-66000000D02*
G01*
X163010000Y-66000000D01*
X163010000Y-64650000D01*
X164105000Y-64650000D01*
X164105000Y-66000000D01*
G37*
G36*
X164105000Y-67550000D02*
G01*
X163010000Y-67550000D01*
X163010000Y-66200000D01*
X164105000Y-66200000D01*
X164105000Y-67550000D01*
G37*
G36*
X165400000Y-66000000D02*
G01*
X164305000Y-66000000D01*
X164305000Y-64650000D01*
X165400000Y-64650000D01*
X165400000Y-66000000D01*
G37*
G36*
X165400000Y-67550000D02*
G01*
X164305000Y-67550000D01*
X164305000Y-66200000D01*
X165400000Y-66200000D01*
X165400000Y-67550000D01*
G37*
G36*
X166695000Y-66000000D02*
G01*
X165600000Y-66000000D01*
X165600000Y-64650000D01*
X166695000Y-64650000D01*
X166695000Y-66000000D01*
G37*
G36*
X166695000Y-67550000D02*
G01*
X165600000Y-67550000D01*
X165600000Y-66200000D01*
X166695000Y-66200000D01*
X166695000Y-67550000D01*
G37*
G36*
X167990000Y-66000000D02*
G01*
X166895000Y-66000000D01*
X166895000Y-64650000D01*
X167990000Y-64650000D01*
X167990000Y-66000000D01*
G37*
G36*
X167990000Y-67550000D02*
G01*
X166895000Y-67550000D01*
X166895000Y-66200000D01*
X167990000Y-66200000D01*
X167990000Y-67550000D01*
G37*
%TD*%
D11*
%TO.C,RLED_R1*%
X180185000Y-83400000D03*
X178535000Y-83400000D03*
%TD*%
D12*
%TO.C,RCAN1*%
X160530000Y-85637500D03*
X160530000Y-87462500D03*
%TD*%
D13*
%TO.C,C1*%
X171480000Y-64425000D03*
X171480000Y-62875000D03*
%TD*%
D14*
%TO.C,U5*%
X168145001Y-88425000D03*
X168145001Y-87155000D03*
X168145001Y-85885000D03*
X168145001Y-84615000D03*
X162895001Y-84615000D03*
X162895001Y-85885000D03*
X162895001Y-87155000D03*
X162895001Y-88425000D03*
%TD*%
D15*
%TO.C,C5*%
X158990000Y-82910000D03*
X160890000Y-82910000D03*
%TD*%
D16*
%TO.C,LED1*%
X176770000Y-83399999D03*
X176770000Y-85300001D03*
X173970000Y-84350000D03*
%TD*%
D17*
%TO.C,U1*%
X169725074Y-63229000D03*
X169075063Y-63229000D03*
X168425051Y-63229000D03*
X167775040Y-63229000D03*
X167125028Y-63229000D03*
X166475017Y-63229000D03*
X165825006Y-63229000D03*
X165174994Y-63229000D03*
X164524983Y-63229000D03*
X163874972Y-63229000D03*
X163224960Y-63229000D03*
X162574949Y-63229000D03*
X161924937Y-63229000D03*
X161274926Y-63229000D03*
X161274926Y-68971000D03*
X161924937Y-68971000D03*
X162574949Y-68971000D03*
X163224960Y-68971000D03*
X163874972Y-68971000D03*
X164524983Y-68971000D03*
X165174994Y-68971000D03*
X165825006Y-68971000D03*
X166475017Y-68971000D03*
X167125028Y-68971000D03*
X167775040Y-68971000D03*
X168425051Y-68971000D03*
X169075063Y-68971000D03*
X169725074Y-68971000D03*
D18*
X165500000Y-66100000D03*
%TD*%
D19*
%TO.C,U2*%
X160699850Y-79269999D03*
X160699850Y-80220000D03*
X160699850Y-81170001D03*
X163100150Y-81170001D03*
X163100150Y-80220000D03*
X163100150Y-79269999D03*
%TD*%
D20*
%TO.C,C11*%
X174370000Y-80920000D03*
X174370000Y-79020000D03*
%TD*%
D21*
%TO.C,CIN1*%
X156460000Y-66040000D03*
X156460000Y-71440000D03*
%TD*%
D20*
%TO.C,C10*%
X172410000Y-80920000D03*
X172410000Y-79020000D03*
%TD*%
D22*
%TO.C,L1*%
X164510000Y-79650000D03*
X167610000Y-79650000D03*
%TD*%
D23*
%TO.C,U4*%
X175870000Y-78665000D03*
X176670000Y-78665000D03*
X177470000Y-78665000D03*
X178270000Y-78665000D03*
X179070000Y-78665000D03*
X179870000Y-78665000D03*
X180670000Y-78665000D03*
X181470000Y-78665000D03*
D24*
X182845000Y-77290000D03*
X182845000Y-76490000D03*
X182845000Y-75690000D03*
X182845000Y-74890000D03*
X182845000Y-74090000D03*
X182845000Y-73290000D03*
X182845000Y-72490000D03*
X182845000Y-71690000D03*
D23*
X181470000Y-70315000D03*
X180670000Y-70315000D03*
X179870000Y-70315000D03*
X179070000Y-70315000D03*
X178270000Y-70315000D03*
X177470000Y-70315000D03*
X176670000Y-70315000D03*
X175870000Y-70315000D03*
D24*
X174495000Y-71690000D03*
X174495000Y-72490000D03*
X174495000Y-73290000D03*
X174495000Y-74090000D03*
X174495000Y-74890000D03*
X174495000Y-75690000D03*
X174495000Y-76490000D03*
X174495000Y-77290000D03*
%TD*%
D25*
%TO.C,D2*%
X158450000Y-75220000D03*
X154450000Y-75220000D03*
%TD*%
D13*
%TO.C,C12*%
X169220000Y-80755000D03*
X169220000Y-79205000D03*
%TD*%
D26*
%TO.C,C6*%
X161355000Y-77790000D03*
X162905000Y-77790000D03*
%TD*%
D27*
%TO.C,C8*%
X164310000Y-82910000D03*
X162410000Y-82910000D03*
%TD*%
D28*
%TO.C,RLED_G1*%
X178535000Y-85310000D03*
X180185000Y-85310000D03*
%TD*%
D27*
%TO.C,C7*%
X167710000Y-82900000D03*
X165810000Y-82900000D03*
%TD*%
D11*
%TO.C,R_BOOT1*%
X172695000Y-76490000D03*
X171045000Y-76490000D03*
%TD*%
D13*
%TO.C,C13*%
X170690000Y-80755000D03*
X170690000Y-79205000D03*
%TD*%
M02*
