M48
; DRILL file {KiCad 9.0.7} date 2026-01-27T18:23:50+0100
; FORMAT={-:-/ absolute / metric / decimal}
; #@! TF.CreationDate,2026-01-27T18:23:50+01:00
; #@! TF.GenerationSoftware,Kicad,Pcbnew,9.0.7
; #@! TF.FileFunction,Plated,1,2,PTH
FMAT,2
METRIC
; #@! TA.AperFunction,Plated,PTH,ViaDrill
T1C0.300
; #@! TA.AperFunction,Plated,PTH,ComponentDrill
T2C1.000
; #@! TA.AperFunction,Plated,PTH,ComponentDrill
T3C1.200
; #@! TA.AperFunction,Plated,PTH,ComponentDrill
T4C3.200
%
G90
G05
T1
X159.49Y-61.51
X159.5Y-60.5
X160.0Y-61.0
X160.5Y-61.51
X160.51Y-60.51
X161.28Y-70.51
X162.34Y-64.68
X162.35Y-66.1
X162.38Y-67.623
X162.925Y-75.135
X162.925Y-76.405
X165.5Y-66.1
X168.145Y-84.615
X168.145Y-88.425
X168.63Y-64.74
X168.71Y-67.51
X168.79Y-66.12
X169.43Y-62.169
X170.729Y-60.256
X170.76Y-60.955
X171.58Y-60.51
X172.49Y-60.27
X172.49Y-61.0
X173.97Y-84.35
X174.495Y-71.69
X174.495Y-72.49
X174.495Y-73.29
X174.495Y-76.49
X174.495Y-77.29
X175.87Y-70.315
X176.67Y-70.315
X177.47Y-76.49
X178.27Y-78.665
X179.87Y-78.665
X182.845Y-71.69
X182.845Y-73.29
X182.845Y-74.89
X185.21Y-74.5
X185.211Y-71.99
X185.211Y-76.99
X185.22Y-69.49
X185.22Y-79.49
T2
X147.24Y-75.75
X147.24Y-78.25
T3
X149.222Y-66.92
X149.222Y-70.42
X160.22Y-58.2
X163.72Y-58.2
X167.22Y-58.2
X170.72Y-58.2
T4
X150.0Y-59.0
X150.0Y-90.0
X181.0Y-59.0
X181.0Y-90.0
M30
